STARTFONT 2.1
COMMENT
COMMENT Converted from OpenType font "alphbeta.ttf" by "otf2bdf 3.0".
COMMENT
FONT -FreeType-Alpha Beta BRK-Medium-R-Normal--66-480-100-100-P-276-ISO10646-1
SIZE 48 100 100
FONTBOUNDINGBOX 50 60 0 -10
STARTPROPERTIES 19
FOUNDRY "FreeType"
FAMILY_NAME "Alpha Beta BRK"
WEIGHT_NAME "Medium"
SLANT "R"
SETWIDTH_NAME "Normal"
ADD_STYLE_NAME ""
PIXEL_SIZE 66
POINT_SIZE 480
RESOLUTION_X 100
RESOLUTION_Y 100
SPACING "P"
AVERAGE_WIDTH 276
CHARSET_REGISTRY "ISO10646"
CHARSET_ENCODING "1"
FONT_ASCENT 50
FONT_DESCENT 10
COPYRIGHT "ÆNIGMA FONTS   [e-mail]  kentpw@norwich.net"
_OTF_FONTFILE "alphbeta.ttf"
_OTF_PSNAME "AlphaBetaBRK"
ENDPROPERTIES
CHARS 227
STARTCHAR 0020
ENCODING 32
SWIDTH 525 0
DWIDTH 35 0
BBX 0 0 0 0
BITMAP
ENDCHAR
STARTCHAR 0021
ENCODING 33
SWIDTH 225 0
DWIDTH 15 0
BBX 10 40 0 0
BITMAP
FFC0
FFC0
FFC0
FFC0
FFC0
FFC0
FFC0
FFC0
FFC0
FFC0
FFC0
FFC0
FFC0
FFC0
FFC0
FFC0
FFC0
FFC0
FFC0
FFC0
FFC0
FFC0
FFC0
FFC0
FFC0
FFC0
FFC0
FFC0
FFC0
FFC0
0000
0000
0000
0000
0000
FFC0
FFC0
FFC0
FFC0
FFC0
ENDCHAR
STARTCHAR 0022
ENCODING 34
SWIDTH 450 0
DWIDTH 30 0
BBX 25 10 0 30
BITMAP
FFC1FF80
FFC1FF80
FFC1FF80
FFC1FF80
FFC1FF80
07C00F80
07C00F80
07C00F80
07C00F80
07C00F80
ENDCHAR
STARTCHAR 0023
ENCODING 35
SWIDTH 675 0
DWIDTH 45 0
BBX 40 40 0 0
BITMAP
07FE007FE0
07FE007FE0
07FE007FE0
07FE007FE0
07FE007FE0
07FE007FE0
07FE007FE0
07FE007FE0
07FE007FE0
07FE007FE0
FFFFFFFFFF
FFFFFFFFFF
FFFFFFFFFF
FFFFFFFFFF
FFFFFFFFFF
07FE007FE0
07FE007FE0
07FE007FE0
07FE007FE0
07FE007FE0
07FE007FE0
07FE007FE0
07FE007FE0
07FE007FE0
07FE007FE0
FFFFFFFFFF
FFFFFFFFFF
FFFFFFFFFF
FFFFFFFFFF
FFFFFFFFFF
07FE007FE0
07FE007FE0
07FE007FE0
07FE007FE0
07FE007FE0
07FE007FE0
07FE007FE0
07FE007FE0
07FE007FE0
07FE007FE0
ENDCHAR
STARTCHAR 0024
ENCODING 36
SWIDTH 525 0
DWIDTH 35 0
BBX 30 60 0 -10
BITMAP
0001F000
0001F000
0001F000
0001F000
0001F000
003FF000
003FF000
003FF000
003FF000
003FF000
07FFFF80
07FFFF80
07FFFF80
07FFFF80
07FFFF80
FFC00FFC
FFC00FFC
FFC00FFC
FFC00FFC
FFC00FFC
FFC00000
FFC00000
FFC00000
FFC00000
FFC00000
FFC1FF80
FFC1FF80
FFC1FF80
FFC1FF80
FFC1FF80
07FE0FFC
07FE0FFC
07FE0FFC
07FE0FFC
07FE0FFC
00000FFC
00000FFC
00000FFC
00000FFC
00000FFC
FFC00FFC
FFC00FFC
FFC00FFC
FFC00FFC
FFC00FFC
07FFFF80
07FFFF80
07FFFF80
07FFFF80
07FFFF80
003FF000
003FF000
003FF000
003FF000
003FF000
003E0000
003E0000
003E0000
003E0000
003E0000
ENDCHAR
STARTCHAR 0025
ENCODING 37
SWIDTH 675 0
DWIDTH 45 0
BBX 40 40 0 0
BITMAP
FFFE007FE0
FFFE007FE0
FFFE007FE0
FFFE007FE0
FFFE007FE0
F83E0FFC00
F83E0FFC00
F83E0FFC00
F83E0FFC00
F83E0FFC00
FFFE0FFC00
FFFE0FFC00
FFFE0FFC00
FFFE0FFC00
FFFE0FFC00
0001FF8000
0001FF8000
0001FF8000
0001FF8000
0001FF8000
0001FF8000
0001FF8000
0001FF8000
0001FF8000
0001FF8000
003FF07FFF
003FF07FFF
003FF07FFF
003FF07FFF
003FF07FFF
003FF07C1F
003FF07C1F
003FF07C1F
003FF07C1F
003FF07C1F
07FE007FFF
07FE007FFF
07FE007FFF
07FE007FFF
07FE007FFF
ENDCHAR
STARTCHAR 0026
ENCODING 38
SWIDTH 525 0
DWIDTH 35 0
BBX 30 60 0 -10
BITMAP
0001F000
0001F000
0001F000
0001F000
0001F000
003FF000
003FF000
003FF000
003FF000
003FF000
07FFFF80
07FFFF80
07FFFF80
07FFFF80
07FFFF80
FFC00FFC
FFC00FFC
FFC00FFC
FFC00FFC
FFC00FFC
FFC00000
FFC00000
FFC00000
FFC00000
FFC00000
07FFF000
07FFF000
07FFF000
07FFF000
07FFF000
FFC00000
FFC00000
FFC00000
FFC00000
FFC00000
FFC00000
FFC00000
FFC00000
FFC00000
FFC00000
FFC00FFC
FFC00FFC
FFC00FFC
FFC00FFC
FFC00FFC
07FFFF80
07FFFF80
07FFFF80
07FFFF80
07FFFF80
003FF000
003FF000
003FF000
003FF000
003FF000
003E0000
003E0000
003E0000
003E0000
003E0000
ENDCHAR
STARTCHAR 0027
ENCODING 39
SWIDTH 225 0
DWIDTH 15 0
BBX 10 10 0 30
BITMAP
FFC0
FFC0
FFC0
FFC0
FFC0
F800
F800
F800
F800
F800
ENDCHAR
STARTCHAR 0028
ENCODING 40
SWIDTH 300 0
DWIDTH 20 0
BBX 15 40 0 0
BITMAP
07FE
07FE
07FE
07FE
07FE
FFC0
FFC0
FFC0
FFC0
FFC0
FFC0
FFC0
FFC0
FFC0
FFC0
FFC0
FFC0
FFC0
FFC0
FFC0
FFC0
FFC0
FFC0
FFC0
FFC0
FFC0
FFC0
FFC0
FFC0
FFC0
FFC0
FFC0
FFC0
FFC0
FFC0
07FE
07FE
07FE
07FE
07FE
ENDCHAR
STARTCHAR 0029
ENCODING 41
SWIDTH 300 0
DWIDTH 20 0
BBX 15 40 0 0
BITMAP
FFC0
FFC0
FFC0
FFC0
FFC0
07FE
07FE
07FE
07FE
07FE
07FE
07FE
07FE
07FE
07FE
07FE
07FE
07FE
07FE
07FE
07FE
07FE
07FE
07FE
07FE
07FE
07FE
07FE
07FE
07FE
07FE
07FE
07FE
07FE
07FE
FFC0
FFC0
FFC0
FFC0
FFC0
ENDCHAR
STARTCHAR 002A
ENCODING 42
SWIDTH 450 0
DWIDTH 30 0
BBX 25 25 0 15
BITMAP
003E0000
003E0000
003E0000
003E0000
003E0000
F83E0F80
F83E0F80
F83E0F80
F83E0F80
F83E0F80
07FFF000
07FFF000
07FFF000
07FFF000
07FFF000
F83E0F80
F83E0F80
F83E0F80
F83E0F80
F83E0F80
003E0000
003E0000
003E0000
003E0000
003E0000
ENDCHAR
STARTCHAR 002B
ENCODING 43
SWIDTH 450 0
DWIDTH 30 0
BBX 25 25 0 10
BITMAP
003E0000
003E0000
003E0000
003E0000
003E0000
003E0000
003E0000
003E0000
003E0000
003E0000
FFFFFF80
FFFFFF80
FFFFFF80
FFFFFF80
FFFFFF80
003E0000
003E0000
003E0000
003E0000
003E0000
003E0000
003E0000
003E0000
003E0000
003E0000
ENDCHAR
STARTCHAR 002C
ENCODING 44
SWIDTH 225 0
DWIDTH 15 0
BBX 10 15 0 -10
BITMAP
FFC0
FFC0
FFC0
FFC0
FFC0
FFC0
FFC0
FFC0
FFC0
FFC0
07C0
07C0
07C0
07C0
07C0
ENDCHAR
STARTCHAR 002D
ENCODING 45
SWIDTH 450 0
DWIDTH 30 0
BBX 25 5 0 20
BITMAP
FFFFFF80
FFFFFF80
FFFFFF80
FFFFFF80
FFFFFF80
ENDCHAR
STARTCHAR 002E
ENCODING 46
SWIDTH 225 0
DWIDTH 15 0
BBX 10 5 0 0
BITMAP
FFC0
FFC0
FFC0
FFC0
FFC0
ENDCHAR
STARTCHAR 002F
ENCODING 47
SWIDTH 525 0
DWIDTH 35 0
BBX 30 40 0 0
BITMAP
00000FFC
00000FFC
00000FFC
00000FFC
00000FFC
0001FF80
0001FF80
0001FF80
0001FF80
0001FF80
0001FF80
0001FF80
0001FF80
0001FF80
0001FF80
003FF000
003FF000
003FF000
003FF000
003FF000
003FF000
003FF000
003FF000
003FF000
003FF000
07FE0000
07FE0000
07FE0000
07FE0000
07FE0000
07FE0000
07FE0000
07FE0000
07FE0000
07FE0000
FFC00000
FFC00000
FFC00000
FFC00000
FFC00000
ENDCHAR
STARTCHAR 0030
ENCODING 48
SWIDTH 525 0
DWIDTH 35 0
BBX 30 40 0 0
BITMAP
07FFFF80
07FFFF80
07FFFF80
07FFFF80
07FFFF80
FFC00FFC
FFC00FFC
FFC00FFC
FFC00FFC
FFC00FFC
FFC00FFC
FFC00FFC
FFC00FFC
FFC00FFC
FFC00FFC
FFC00FFC
FFC00FFC
FFC00FFC
FFC00FFC
FFC00FFC
FFC00FFC
FFC00FFC
FFC00FFC
FFC00FFC
FFC00FFC
FFC00FFC
FFC00FFC
FFC00FFC
FFC00FFC
FFC00FFC
FFC00FFC
FFC00FFC
FFC00FFC
FFC00FFC
FFC00FFC
07FFFF80
07FFFF80
07FFFF80
07FFFF80
07FFFF80
ENDCHAR
STARTCHAR 0031
ENCODING 49
SWIDTH 300 0
DWIDTH 20 0
BBX 15 40 0 0
BITMAP
FFFE
FFFE
FFFE
FFFE
FFFE
07FE
07FE
07FE
07FE
07FE
07FE
07FE
07FE
07FE
07FE
07FE
07FE
07FE
07FE
07FE
07FE
07FE
07FE
07FE
07FE
07FE
07FE
07FE
07FE
07FE
07FE
07FE
07FE
07FE
07FE
07FE
07FE
07FE
07FE
07FE
ENDCHAR
STARTCHAR 0032
ENCODING 50
SWIDTH 525 0
DWIDTH 35 0
BBX 30 40 0 0
BITMAP
07FFFF80
07FFFF80
07FFFF80
07FFFF80
07FFFF80
FFC00FFC
FFC00FFC
FFC00FFC
FFC00FFC
FFC00FFC
00000FFC
00000FFC
00000FFC
00000FFC
00000FFC
07FE0FFC
07FE0FFC
07FE0FFC
07FE0FFC
07FE0FFC
FFC1FF80
FFC1FF80
FFC1FF80
FFC1FF80
FFC1FF80
FFC00000
FFC00000
FFC00000
FFC00000
FFC00000
FFC00000
FFC00000
FFC00000
FFC00000
FFC00000
FFFFFFFC
FFFFFFFC
FFFFFFFC
FFFFFFFC
FFFFFFFC
ENDCHAR
STARTCHAR 0033
ENCODING 51
SWIDTH 525 0
DWIDTH 35 0
BBX 30 40 0 0
BITMAP
07FFFF80
07FFFF80
07FFFF80
07FFFF80
07FFFF80
FFC00FFC
FFC00FFC
FFC00FFC
FFC00FFC
FFC00FFC
00000FFC
00000FFC
00000FFC
00000FFC
00000FFC
003FFF80
003FFF80
003FFF80
003FFF80
003FFF80
00000FFC
00000FFC
00000FFC
00000FFC
00000FFC
00000FFC
00000FFC
00000FFC
00000FFC
00000FFC
FFC00FFC
FFC00FFC
FFC00FFC
FFC00FFC
FFC00FFC
07FFFF80
07FFFF80
07FFFF80
07FFFF80
07FFFF80
ENDCHAR
STARTCHAR 0034
ENCODING 52
SWIDTH 525 0
DWIDTH 35 0
BBX 30 40 0 0
BITMAP
FFC00FFC
FFC00FFC
FFC00FFC
FFC00FFC
FFC00FFC
FFC00FFC
FFC00FFC
FFC00FFC
FFC00FFC
FFC00FFC
FFC00FFC
FFC00FFC
FFC00FFC
FFC00FFC
FFC00FFC
FFC1FFFC
FFC1FFFC
FFC1FFFC
FFC1FFFC
FFC1FFFC
07FE0FFC
07FE0FFC
07FE0FFC
07FE0FFC
07FE0FFC
00000FFC
00000FFC
00000FFC
00000FFC
00000FFC
00000FFC
00000FFC
00000FFC
00000FFC
00000FFC
00000FFC
00000FFC
00000FFC
00000FFC
00000FFC
ENDCHAR
STARTCHAR 0035
ENCODING 53
SWIDTH 525 0
DWIDTH 35 0
BBX 30 40 0 0
BITMAP
FFFFFFFC
FFFFFFFC
FFFFFFFC
FFFFFFFC
FFFFFFFC
FFC00000
FFC00000
FFC00000
FFC00000
FFC00000
FFC00000
FFC00000
FFC00000
FFC00000
FFC00000
FFC1FF80
FFC1FF80
FFC1FF80
FFC1FF80
FFC1FF80
07FE0FFC
07FE0FFC
07FE0FFC
07FE0FFC
07FE0FFC
00000FFC
00000FFC
00000FFC
00000FFC
00000FFC
FFC00FFC
FFC00FFC
FFC00FFC
FFC00FFC
FFC00FFC
07FFFF80
07FFFF80
07FFFF80
07FFFF80
07FFFF80
ENDCHAR
STARTCHAR 0036
ENCODING 54
SWIDTH 525 0
DWIDTH 35 0
BBX 30 40 0 0
BITMAP
07FFFF80
07FFFF80
07FFFF80
07FFFF80
07FFFF80
FFC00FFC
FFC00FFC
FFC00FFC
FFC00FFC
FFC00FFC
FFC00000
FFC00000
FFC00000
FFC00000
FFC00000
FFC1FF80
FFC1FF80
FFC1FF80
FFC1FF80
FFC1FF80
FFFE0FFC
FFFE0FFC
FFFE0FFC
FFFE0FFC
FFFE0FFC
FFC00FFC
FFC00FFC
FFC00FFC
FFC00FFC
FFC00FFC
FFC00FFC
FFC00FFC
FFC00FFC
FFC00FFC
FFC00FFC
07FFFF80
07FFFF80
07FFFF80
07FFFF80
07FFFF80
ENDCHAR
STARTCHAR 0037
ENCODING 55
SWIDTH 525 0
DWIDTH 35 0
BBX 30 40 0 0
BITMAP
FFFFFFFC
FFFFFFFC
FFFFFFFC
FFFFFFFC
FFFFFFFC
00000FFC
00000FFC
00000FFC
00000FFC
00000FFC
00000FFC
00000FFC
00000FFC
00000FFC
00000FFC
00000FFC
00000FFC
00000FFC
00000FFC
00000FFC
00000FFC
00000FFC
00000FFC
00000FFC
00000FFC
00000FFC
00000FFC
00000FFC
00000FFC
00000FFC
00000FFC
00000FFC
00000FFC
00000FFC
00000FFC
00000FFC
00000FFC
00000FFC
00000FFC
00000FFC
ENDCHAR
STARTCHAR 0038
ENCODING 56
SWIDTH 525 0
DWIDTH 35 0
BBX 30 40 0 0
BITMAP
07FFFF80
07FFFF80
07FFFF80
07FFFF80
07FFFF80
FFC00FFC
FFC00FFC
FFC00FFC
FFC00FFC
FFC00FFC
FFC00FFC
FFC00FFC
FFC00FFC
FFC00FFC
FFC00FFC
07FE0FFC
07FE0FFC
07FE0FFC
07FE0FFC
07FE0FFC
FFC1FF80
FFC1FF80
FFC1FF80
FFC1FF80
FFC1FF80
FFC00FFC
FFC00FFC
FFC00FFC
FFC00FFC
FFC00FFC
FFC00FFC
FFC00FFC
FFC00FFC
FFC00FFC
FFC00FFC
07FFFF80
07FFFF80
07FFFF80
07FFFF80
07FFFF80
ENDCHAR
STARTCHAR 0039
ENCODING 57
SWIDTH 525 0
DWIDTH 35 0
BBX 30 40 0 0
BITMAP
07FFFF80
07FFFF80
07FFFF80
07FFFF80
07FFFF80
FFC00FFC
FFC00FFC
FFC00FFC
FFC00FFC
FFC00FFC
FFC00FFC
FFC00FFC
FFC00FFC
FFC00FFC
FFC00FFC
07FE0FFC
07FE0FFC
07FE0FFC
07FE0FFC
07FE0FFC
0001FFFC
0001FFFC
0001FFFC
0001FFFC
0001FFFC
00000FFC
00000FFC
00000FFC
00000FFC
00000FFC
00000FFC
00000FFC
00000FFC
00000FFC
00000FFC
00000FFC
00000FFC
00000FFC
00000FFC
00000FFC
ENDCHAR
STARTCHAR 003A
ENCODING 58
SWIDTH 225 0
DWIDTH 15 0
BBX 10 40 0 0
BITMAP
FFC0
FFC0
FFC0
FFC0
FFC0
0000
0000
0000
0000
0000
0000
0000
0000
0000
0000
0000
0000
0000
0000
0000
0000
0000
0000
0000
0000
0000
0000
0000
0000
0000
0000
0000
0000
0000
0000
FFC0
FFC0
FFC0
FFC0
FFC0
ENDCHAR
STARTCHAR 003B
ENCODING 59
SWIDTH 225 0
DWIDTH 15 0
BBX 10 50 0 -10
BITMAP
FFC0
FFC0
FFC0
FFC0
FFC0
0000
0000
0000
0000
0000
0000
0000
0000
0000
0000
0000
0000
0000
0000
0000
0000
0000
0000
0000
0000
0000
0000
0000
0000
0000
0000
0000
0000
0000
0000
FFC0
FFC0
FFC0
FFC0
FFC0
FFC0
FFC0
FFC0
FFC0
FFC0
07C0
07C0
07C0
07C0
07C0
ENDCHAR
STARTCHAR 003C
ENCODING 60
SWIDTH 375 0
DWIDTH 25 0
BBX 20 25 0 10
BITMAP
003FF0
003FF0
003FF0
003FF0
003FF0
07FE00
07FE00
07FE00
07FE00
07FE00
FFC000
FFC000
FFC000
FFC000
FFC000
07FE00
07FE00
07FE00
07FE00
07FE00
003FF0
003FF0
003FF0
003FF0
003FF0
ENDCHAR
STARTCHAR 003D
ENCODING 61
SWIDTH 450 0
DWIDTH 30 0
BBX 25 15 0 15
BITMAP
FFFFFF80
FFFFFF80
FFFFFF80
FFFFFF80
FFFFFF80
00000000
00000000
00000000
00000000
00000000
FFFFFF80
FFFFFF80
FFFFFF80
FFFFFF80
FFFFFF80
ENDCHAR
STARTCHAR 003E
ENCODING 62
SWIDTH 375 0
DWIDTH 25 0
BBX 20 25 0 10
BITMAP
FFC000
FFC000
FFC000
FFC000
FFC000
07FE00
07FE00
07FE00
07FE00
07FE00
003FF0
003FF0
003FF0
003FF0
003FF0
07FE00
07FE00
07FE00
07FE00
07FE00
FFC000
FFC000
FFC000
FFC000
FFC000
ENDCHAR
STARTCHAR 003F
ENCODING 63
SWIDTH 525 0
DWIDTH 35 0
BBX 30 40 0 0
BITMAP
07FFFF80
07FFFF80
07FFFF80
07FFFF80
07FFFF80
FFC00FFC
FFC00FFC
FFC00FFC
FFC00FFC
FFC00FFC
00000FFC
00000FFC
00000FFC
00000FFC
00000FFC
0001FF80
0001FF80
0001FF80
0001FF80
0001FF80
003FF000
003FF000
003FF000
003FF000
003FF000
003FF000
003FF000
003FF000
003FF000
003FF000
00000000
00000000
00000000
00000000
00000000
003FF000
003FF000
003FF000
003FF000
003FF000
ENDCHAR
STARTCHAR 0040
ENCODING 64
SWIDTH 825 0
DWIDTH 55 0
BBX 50 40 0 0
BITMAP
07FFFFFFFFF800
07FFFFFFFFF800
07FFFFFFFFF800
07FFFFFFFFF800
07FFFFFFFFF800
FFC0000000FFC0
FFC0000000FFC0
FFC0000000FFC0
FFC0000000FFC0
FFC0000000FFC0
FFC1FFFFE0FFC0
FFC1FFFFE0FFC0
FFC1FFFFE0FFC0
FFC1FFFFE0FFC0
FFC1FFFFE0FFC0
FFC1F003E0FFC0
FFC1F003E0FFC0
FFC1F003E0FFC0
FFC1F003E0FFC0
FFC1F003E0FFC0
FFC1F07FE0FFC0
FFC1F07FE0FFC0
FFC1F07FE0FFC0
FFC1F07FE0FFC0
FFC1F07FE0FFC0
FFC1FF83FFF800
FFC1FF83FFF800
FFC1FF83FFF800
FFC1FF83FFF800
FFC1FF83FFF800
FFC00000000000
FFC00000000000
FFC00000000000
FFC00000000000
FFC00000000000
07FFFF80000000
07FFFF80000000
07FFFF80000000
07FFFF80000000
07FFFF80000000
ENDCHAR
STARTCHAR 0041
ENCODING 65
SWIDTH 525 0
DWIDTH 35 0
BBX 30 40 0 0
BITMAP
07FFFF80
07FFFF80
07FFFF80
07FFFF80
07FFFF80
FFC00FFC
FFC00FFC
FFC00FFC
FFC00FFC
FFC00FFC
FFC00FFC
FFC00FFC
FFC00FFC
FFC00FFC
FFC00FFC
FFC1FFFC
FFC1FFFC
FFC1FFFC
FFC1FFFC
FFC1FFFC
FFFE0FFC
FFFE0FFC
FFFE0FFC
FFFE0FFC
FFFE0FFC
FFC00FFC
FFC00FFC
FFC00FFC
FFC00FFC
FFC00FFC
FFC00FFC
FFC00FFC
FFC00FFC
FFC00FFC
FFC00FFC
FFC00FFC
FFC00FFC
FFC00FFC
FFC00FFC
FFC00FFC
ENDCHAR
STARTCHAR 0042
ENCODING 66
SWIDTH 525 0
DWIDTH 35 0
BBX 30 40 0 0
BITMAP
FFFFFF80
FFFFFF80
FFFFFF80
FFFFFF80
FFFFFF80
FFC00FFC
FFC00FFC
FFC00FFC
FFC00FFC
FFC00FFC
FFC00FFC
FFC00FFC
FFC00FFC
FFC00FFC
FFC00FFC
FFC1FF80
FFC1FF80
FFC1FF80
FFC1FF80
FFC1FF80
FFFE0FFC
FFFE0FFC
FFFE0FFC
FFFE0FFC
FFFE0FFC
FFC00FFC
FFC00FFC
FFC00FFC
FFC00FFC
FFC00FFC
FFC00FFC
FFC00FFC
FFC00FFC
FFC00FFC
FFC00FFC
FFFFFF80
FFFFFF80
FFFFFF80
FFFFFF80
FFFFFF80
ENDCHAR
STARTCHAR 0043
ENCODING 67
SWIDTH 525 0
DWIDTH 35 0
BBX 30 40 0 0
BITMAP
07FFFF80
07FFFF80
07FFFF80
07FFFF80
07FFFF80
FFC00FFC
FFC00FFC
FFC00FFC
FFC00FFC
FFC00FFC
FFC00000
FFC00000
FFC00000
FFC00000
FFC00000
FFC00000
FFC00000
FFC00000
FFC00000
FFC00000
FFC00000
FFC00000
FFC00000
FFC00000
FFC00000
FFC00000
FFC00000
FFC00000
FFC00000
FFC00000
FFC00FFC
FFC00FFC
FFC00FFC
FFC00FFC
FFC00FFC
07FFFF80
07FFFF80
07FFFF80
07FFFF80
07FFFF80
ENDCHAR
STARTCHAR 0044
ENCODING 68
SWIDTH 525 0
DWIDTH 35 0
BBX 30 40 0 0
BITMAP
FFFFF000
FFFFF000
FFFFF000
FFFFF000
FFFFF000
FFC1FF80
FFC1FF80
FFC1FF80
FFC1FF80
FFC1FF80
FFC00FFC
FFC00FFC
FFC00FFC
FFC00FFC
FFC00FFC
FFC00FFC
FFC00FFC
FFC00FFC
FFC00FFC
FFC00FFC
FFC00FFC
FFC00FFC
FFC00FFC
FFC00FFC
FFC00FFC
FFC00FFC
FFC00FFC
FFC00FFC
FFC00FFC
FFC00FFC
FFC00FFC
FFC00FFC
FFC00FFC
FFC00FFC
FFC00FFC
FFFFFF80
FFFFFF80
FFFFFF80
FFFFFF80
FFFFFF80
ENDCHAR
STARTCHAR 0045
ENCODING 69
SWIDTH 525 0
DWIDTH 35 0
BBX 30 40 0 0
BITMAP
07FFFF80
07FFFF80
07FFFF80
07FFFF80
07FFFF80
FFC00FFC
FFC00FFC
FFC00FFC
FFC00FFC
FFC00FFC
FFC00000
FFC00000
FFC00000
FFC00000
FFC00000
FFFFF000
FFFFF000
FFFFF000
FFFFF000
FFFFF000
FFC00000
FFC00000
FFC00000
FFC00000
FFC00000
FFC00000
FFC00000
FFC00000
FFC00000
FFC00000
FFC00FFC
FFC00FFC
FFC00FFC
FFC00FFC
FFC00FFC
07FFFF80
07FFFF80
07FFFF80
07FFFF80
07FFFF80
ENDCHAR
STARTCHAR 0046
ENCODING 70
SWIDTH 525 0
DWIDTH 35 0
BBX 30 40 0 0
BITMAP
07FFFF80
07FFFF80
07FFFF80
07FFFF80
07FFFF80
FFC00FFC
FFC00FFC
FFC00FFC
FFC00FFC
FFC00FFC
FFC00000
FFC00000
FFC00000
FFC00000
FFC00000
FFFFF000
FFFFF000
FFFFF000
FFFFF000
FFFFF000
FFC00000
FFC00000
FFC00000
FFC00000
FFC00000
FFC00000
FFC00000
FFC00000
FFC00000
FFC00000
FFC00000
FFC00000
FFC00000
FFC00000
FFC00000
FFC00000
FFC00000
FFC00000
FFC00000
FFC00000
ENDCHAR
STARTCHAR 0047
ENCODING 71
SWIDTH 525 0
DWIDTH 35 0
BBX 30 40 0 0
BITMAP
07FFFF80
07FFFF80
07FFFF80
07FFFF80
07FFFF80
FFC00FFC
FFC00FFC
FFC00FFC
FFC00FFC
FFC00FFC
FFC00000
FFC00000
FFC00000
FFC00000
FFC00000
FFC1FFFC
FFC1FFFC
FFC1FFFC
FFC1FFFC
FFC1FFFC
FFC00FFC
FFC00FFC
FFC00FFC
FFC00FFC
FFC00FFC
FFC00FFC
FFC00FFC
FFC00FFC
FFC00FFC
FFC00FFC
FFC00FFC
FFC00FFC
FFC00FFC
FFC00FFC
FFC00FFC
07FFFFFC
07FFFFFC
07FFFFFC
07FFFFFC
07FFFFFC
ENDCHAR
STARTCHAR 0048
ENCODING 72
SWIDTH 525 0
DWIDTH 35 0
BBX 30 40 0 0
BITMAP
FFC00FFC
FFC00FFC
FFC00FFC
FFC00FFC
FFC00FFC
FFC00FFC
FFC00FFC
FFC00FFC
FFC00FFC
FFC00FFC
FFC00FFC
FFC00FFC
FFC00FFC
FFC00FFC
FFC00FFC
FFC1FFFC
FFC1FFFC
FFC1FFFC
FFC1FFFC
FFC1FFFC
FFFE0FFC
FFFE0FFC
FFFE0FFC
FFFE0FFC
FFFE0FFC
FFC00FFC
FFC00FFC
FFC00FFC
FFC00FFC
FFC00FFC
FFC00FFC
FFC00FFC
FFC00FFC
FFC00FFC
FFC00FFC
FFC00FFC
FFC00FFC
FFC00FFC
FFC00FFC
FFC00FFC
ENDCHAR
STARTCHAR 0049
ENCODING 73
SWIDTH 525 0
DWIDTH 35 0
BBX 30 40 0 0
BITMAP
FFFFFFFC
FFFFFFFC
FFFFFFFC
FFFFFFFC
FFFFFFFC
003FF000
003FF000
003FF000
003FF000
003FF000
003FF000
003FF000
003FF000
003FF000
003FF000
003FF000
003FF000
003FF000
003FF000
003FF000
003FF000
003FF000
003FF000
003FF000
003FF000
003FF000
003FF000
003FF000
003FF000
003FF000
003FF000
003FF000
003FF000
003FF000
003FF000
FFFFFFFC
FFFFFFFC
FFFFFFFC
FFFFFFFC
FFFFFFFC
ENDCHAR
STARTCHAR 004A
ENCODING 74
SWIDTH 525 0
DWIDTH 35 0
BBX 30 40 0 0
BITMAP
00000FFC
00000FFC
00000FFC
00000FFC
00000FFC
00000FFC
00000FFC
00000FFC
00000FFC
00000FFC
00000FFC
00000FFC
00000FFC
00000FFC
00000FFC
00000FFC
00000FFC
00000FFC
00000FFC
00000FFC
00000FFC
00000FFC
00000FFC
00000FFC
00000FFC
00000FFC
00000FFC
00000FFC
00000FFC
00000FFC
FFC00FFC
FFC00FFC
FFC00FFC
FFC00FFC
FFC00FFC
07FFFF80
07FFFF80
07FFFF80
07FFFF80
07FFFF80
ENDCHAR
STARTCHAR 004B
ENCODING 75
SWIDTH 525 0
DWIDTH 35 0
BBX 30 40 0 0
BITMAP
FFC00FFC
FFC00FFC
FFC00FFC
FFC00FFC
FFC00FFC
FFC00FFC
FFC00FFC
FFC00FFC
FFC00FFC
FFC00FFC
FFC00FFC
FFC00FFC
FFC00FFC
FFC00FFC
FFC00FFC
FFC1FF80
FFC1FF80
FFC1FF80
FFC1FF80
FFC1FF80
FFFE0FFC
FFFE0FFC
FFFE0FFC
FFFE0FFC
FFFE0FFC
FFC00FFC
FFC00FFC
FFC00FFC
FFC00FFC
FFC00FFC
FFC00FFC
FFC00FFC
FFC00FFC
FFC00FFC
FFC00FFC
FFC00FFC
FFC00FFC
FFC00FFC
FFC00FFC
FFC00FFC
ENDCHAR
STARTCHAR 004C
ENCODING 76
SWIDTH 525 0
DWIDTH 35 0
BBX 30 40 0 0
BITMAP
FFC00000
FFC00000
FFC00000
FFC00000
FFC00000
FFC00000
FFC00000
FFC00000
FFC00000
FFC00000
FFC00000
FFC00000
FFC00000
FFC00000
FFC00000
FFC00000
FFC00000
FFC00000
FFC00000
FFC00000
FFC00000
FFC00000
FFC00000
FFC00000
FFC00000
FFC00000
FFC00000
FFC00000
FFC00000
FFC00000
FFC00FFC
FFC00FFC
FFC00FFC
FFC00FFC
FFC00FFC
07FFFF80
07FFFF80
07FFFF80
07FFFF80
07FFFF80
ENDCHAR
STARTCHAR 004D
ENCODING 77
SWIDTH 825 0
DWIDTH 55 0
BBX 50 40 0 0
BITMAP
FFC1FFFC1FF800
FFC1FFFC1FF800
FFC1FFFC1FF800
FFC1FFFC1FF800
FFC1FFFC1FF800
FFFE0FFFE0FFC0
FFFE0FFFE0FFC0
FFFE0FFFE0FFC0
FFFE0FFFE0FFC0
FFFE0FFFE0FFC0
FFC00FFC00FFC0
FFC00FFC00FFC0
FFC00FFC00FFC0
FFC00FFC00FFC0
FFC00FFC00FFC0
FFC00FFC00FFC0
FFC00FFC00FFC0
FFC00FFC00FFC0
FFC00FFC00FFC0
FFC00FFC00FFC0
FFC00FFC00FFC0
FFC00FFC00FFC0
FFC00FFC00FFC0
FFC00FFC00FFC0
FFC00FFC00FFC0
FFC00FFC00FFC0
FFC00FFC00FFC0
FFC00FFC00FFC0
FFC00FFC00FFC0
FFC00FFC00FFC0
FFC00FFC00FFC0
FFC00FFC00FFC0
FFC00FFC00FFC0
FFC00FFC00FFC0
FFC00FFC00FFC0
FFC00FFC00FFC0
FFC00FFC00FFC0
FFC00FFC00FFC0
FFC00FFC00FFC0
FFC00FFC00FFC0
ENDCHAR
STARTCHAR 004E
ENCODING 78
SWIDTH 525 0
DWIDTH 35 0
BBX 30 40 0 0
BITMAP
FFC1FF80
FFC1FF80
FFC1FF80
FFC1FF80
FFC1FF80
FFFE0FFC
FFFE0FFC
FFFE0FFC
FFFE0FFC
FFFE0FFC
FFC00FFC
FFC00FFC
FFC00FFC
FFC00FFC
FFC00FFC
FFC00FFC
FFC00FFC
FFC00FFC
FFC00FFC
FFC00FFC
FFC00FFC
FFC00FFC
FFC00FFC
FFC00FFC
FFC00FFC
FFC00FFC
FFC00FFC
FFC00FFC
FFC00FFC
FFC00FFC
FFC00FFC
FFC00FFC
FFC00FFC
FFC00FFC
FFC00FFC
FFC00FFC
FFC00FFC
FFC00FFC
FFC00FFC
FFC00FFC
ENDCHAR
STARTCHAR 004F
ENCODING 79
SWIDTH 525 0
DWIDTH 35 0
BBX 30 40 0 0
BITMAP
07FFFF80
07FFFF80
07FFFF80
07FFFF80
07FFFF80
FFC00FFC
FFC00FFC
FFC00FFC
FFC00FFC
FFC00FFC
FFC00FFC
FFC00FFC
FFC00FFC
FFC00FFC
FFC00FFC
FFC00FFC
FFC00FFC
FFC00FFC
FFC00FFC
FFC00FFC
FFC00FFC
FFC00FFC
FFC00FFC
FFC00FFC
FFC00FFC
FFC00FFC
FFC00FFC
FFC00FFC
FFC00FFC
FFC00FFC
FFC00FFC
FFC00FFC
FFC00FFC
FFC00FFC
FFC00FFC
07FFFF80
07FFFF80
07FFFF80
07FFFF80
07FFFF80
ENDCHAR
STARTCHAR 0050
ENCODING 80
SWIDTH 525 0
DWIDTH 35 0
BBX 30 40 0 0
BITMAP
FFFFFF80
FFFFFF80
FFFFFF80
FFFFFF80
FFFFFF80
FFC00FFC
FFC00FFC
FFC00FFC
FFC00FFC
FFC00FFC
FFC00FFC
FFC00FFC
FFC00FFC
FFC00FFC
FFC00FFC
FFC1FF80
FFC1FF80
FFC1FF80
FFC1FF80
FFC1FF80
FFFE0000
FFFE0000
FFFE0000
FFFE0000
FFFE0000
FFC00000
FFC00000
FFC00000
FFC00000
FFC00000
FFC00000
FFC00000
FFC00000
FFC00000
FFC00000
FFC00000
FFC00000
FFC00000
FFC00000
FFC00000
ENDCHAR
STARTCHAR 0051
ENCODING 81
SWIDTH 525 0
DWIDTH 35 0
BBX 30 50 0 -10
BITMAP
07FFFF80
07FFFF80
07FFFF80
07FFFF80
07FFFF80
FFC00FFC
FFC00FFC
FFC00FFC
FFC00FFC
FFC00FFC
FFC00FFC
FFC00FFC
FFC00FFC
FFC00FFC
FFC00FFC
FFC00FFC
FFC00FFC
FFC00FFC
FFC00FFC
FFC00FFC
FFC00FFC
FFC00FFC
FFC00FFC
FFC00FFC
FFC00FFC
FFC00FFC
FFC00FFC
FFC00FFC
FFC00FFC
FFC00FFC
FFC00FFC
FFC00FFC
FFC00FFC
FFC00FFC
FFC00FFC
07FFFF80
07FFFF80
07FFFF80
07FFFF80
07FFFF80
003FF000
003FF000
003FF000
003FF000
003FF000
003E0000
003E0000
003E0000
003E0000
003E0000
ENDCHAR
STARTCHAR 0052
ENCODING 82
SWIDTH 525 0
DWIDTH 35 0
BBX 30 40 0 0
BITMAP
FFFFFF80
FFFFFF80
FFFFFF80
FFFFFF80
FFFFFF80
FFC00FFC
FFC00FFC
FFC00FFC
FFC00FFC
FFC00FFC
FFC00FFC
FFC00FFC
FFC00FFC
FFC00FFC
FFC00FFC
FFC1FF80
FFC1FF80
FFC1FF80
FFC1FF80
FFC1FF80
FFFE0FFC
FFFE0FFC
FFFE0FFC
FFFE0FFC
FFFE0FFC
FFC00FFC
FFC00FFC
FFC00FFC
FFC00FFC
FFC00FFC
FFC00FFC
FFC00FFC
FFC00FFC
FFC00FFC
FFC00FFC
FFC00FFC
FFC00FFC
FFC00FFC
FFC00FFC
FFC00FFC
ENDCHAR
STARTCHAR 0053
ENCODING 83
SWIDTH 525 0
DWIDTH 35 0
BBX 30 40 0 0
BITMAP
07FFFF80
07FFFF80
07FFFF80
07FFFF80
07FFFF80
FFC00FFC
FFC00FFC
FFC00FFC
FFC00FFC
FFC00FFC
FFC00000
FFC00000
FFC00000
FFC00000
FFC00000
FFC1FF80
FFC1FF80
FFC1FF80
FFC1FF80
FFC1FF80
07FE0FFC
07FE0FFC
07FE0FFC
07FE0FFC
07FE0FFC
00000FFC
00000FFC
00000FFC
00000FFC
00000FFC
FFC00FFC
FFC00FFC
FFC00FFC
FFC00FFC
FFC00FFC
07FFFF80
07FFFF80
07FFFF80
07FFFF80
07FFFF80
ENDCHAR
STARTCHAR 0054
ENCODING 84
SWIDTH 525 0
DWIDTH 35 0
BBX 30 40 0 0
BITMAP
FFFFFFFC
FFFFFFFC
FFFFFFFC
FFFFFFFC
FFFFFFFC
003FF000
003FF000
003FF000
003FF000
003FF000
003FF000
003FF000
003FF000
003FF000
003FF000
003FF000
003FF000
003FF000
003FF000
003FF000
003FF000
003FF000
003FF000
003FF000
003FF000
003FF000
003FF000
003FF000
003FF000
003FF000
003FF000
003FF000
003FF000
003FF000
003FF000
003FF000
003FF000
003FF000
003FF000
003FF000
ENDCHAR
STARTCHAR 0055
ENCODING 85
SWIDTH 525 0
DWIDTH 35 0
BBX 30 40 0 0
BITMAP
FFC00FFC
FFC00FFC
FFC00FFC
FFC00FFC
FFC00FFC
FFC00FFC
FFC00FFC
FFC00FFC
FFC00FFC
FFC00FFC
FFC00FFC
FFC00FFC
FFC00FFC
FFC00FFC
FFC00FFC
FFC00FFC
FFC00FFC
FFC00FFC
FFC00FFC
FFC00FFC
FFC00FFC
FFC00FFC
FFC00FFC
FFC00FFC
FFC00FFC
FFC00FFC
FFC00FFC
FFC00FFC
FFC00FFC
FFC00FFC
FFC1FFFC
FFC1FFFC
FFC1FFFC
FFC1FFFC
FFC1FFFC
07FE0FFC
07FE0FFC
07FE0FFC
07FE0FFC
07FE0FFC
ENDCHAR
STARTCHAR 0056
ENCODING 86
SWIDTH 525 0
DWIDTH 35 0
BBX 30 40 0 0
BITMAP
FFC00FFC
FFC00FFC
FFC00FFC
FFC00FFC
FFC00FFC
FFC00FFC
FFC00FFC
FFC00FFC
FFC00FFC
FFC00FFC
FFC00FFC
FFC00FFC
FFC00FFC
FFC00FFC
FFC00FFC
FFC00FFC
FFC00FFC
FFC00FFC
FFC00FFC
FFC00FFC
FFC00FFC
FFC00FFC
FFC00FFC
FFC00FFC
FFC00FFC
FFC00FFC
FFC00FFC
FFC00FFC
FFC00FFC
FFC00FFC
07FFFF80
07FFFF80
07FFFF80
07FFFF80
07FFFF80
003FF000
003FF000
003FF000
003FF000
003FF000
ENDCHAR
STARTCHAR 0057
ENCODING 87
SWIDTH 825 0
DWIDTH 55 0
BBX 50 40 0 0
BITMAP
FFC00FFC00FFC0
FFC00FFC00FFC0
FFC00FFC00FFC0
FFC00FFC00FFC0
FFC00FFC00FFC0
FFC00FFC00FFC0
FFC00FFC00FFC0
FFC00FFC00FFC0
FFC00FFC00FFC0
FFC00FFC00FFC0
FFC00FFC00FFC0
FFC00FFC00FFC0
FFC00FFC00FFC0
FFC00FFC00FFC0
FFC00FFC00FFC0
FFC00FFC00FFC0
FFC00FFC00FFC0
FFC00FFC00FFC0
FFC00FFC00FFC0
FFC00FFC00FFC0
FFC00FFC00FFC0
FFC00FFC00FFC0
FFC00FFC00FFC0
FFC00FFC00FFC0
FFC00FFC00FFC0
FFC00FFC00FFC0
FFC00FFC00FFC0
FFC00FFC00FFC0
FFC00FFC00FFC0
FFC00FFC00FFC0
FFC1FFFC1FF800
FFC1FFFC1FF800
FFC1FFFC1FF800
FFC1FFFC1FF800
FFC1FFFC1FF800
07FE0FFFFF0000
07FE0FFFFF0000
07FE0FFFFF0000
07FE0FFFFF0000
07FE0FFFFF0000
ENDCHAR
STARTCHAR 0058
ENCODING 88
SWIDTH 525 0
DWIDTH 35 0
BBX 30 40 0 0
BITMAP
FFC00FFC
FFC00FFC
FFC00FFC
FFC00FFC
FFC00FFC
FFC00FFC
FFC00FFC
FFC00FFC
FFC00FFC
FFC00FFC
07FFFF80
07FFFF80
07FFFF80
07FFFF80
07FFFF80
003FF000
003FF000
003FF000
003FF000
003FF000
07FFFF80
07FFFF80
07FFFF80
07FFFF80
07FFFF80
FFC00FFC
FFC00FFC
FFC00FFC
FFC00FFC
FFC00FFC
FFC00FFC
FFC00FFC
FFC00FFC
FFC00FFC
FFC00FFC
FFC00FFC
FFC00FFC
FFC00FFC
FFC00FFC
FFC00FFC
ENDCHAR
STARTCHAR 0059
ENCODING 89
SWIDTH 525 0
DWIDTH 35 0
BBX 30 40 0 0
BITMAP
FFC00FFC
FFC00FFC
FFC00FFC
FFC00FFC
FFC00FFC
FFC00FFC
FFC00FFC
FFC00FFC
FFC00FFC
FFC00FFC
FFC00FFC
FFC00FFC
FFC00FFC
FFC00FFC
FFC00FFC
FFC1FFFC
FFC1FFFC
FFC1FFFC
FFC1FFFC
FFC1FFFC
07FE0FFC
07FE0FFC
07FE0FFC
07FE0FFC
07FE0FFC
00000FFC
00000FFC
00000FFC
00000FFC
00000FFC
00000FFC
00000FFC
00000FFC
00000FFC
00000FFC
003FFF80
003FFF80
003FFF80
003FFF80
003FFF80
ENDCHAR
STARTCHAR 005A
ENCODING 90
SWIDTH 525 0
DWIDTH 35 0
BBX 30 40 0 0
BITMAP
FFFFFFFC
FFFFFFFC
FFFFFFFC
FFFFFFFC
FFFFFFFC
00000FFC
00000FFC
00000FFC
00000FFC
00000FFC
0001FF80
0001FF80
0001FF80
0001FF80
0001FF80
003FF000
003FF000
003FF000
003FF000
003FF000
07FE0000
07FE0000
07FE0000
07FE0000
07FE0000
FFC00000
FFC00000
FFC00000
FFC00000
FFC00000
FFC00000
FFC00000
FFC00000
FFC00000
FFC00000
FFFFFFFC
FFFFFFFC
FFFFFFFC
FFFFFFFC
FFFFFFFC
ENDCHAR
STARTCHAR 005B
ENCODING 91
SWIDTH 300 0
DWIDTH 20 0
BBX 15 40 0 0
BITMAP
FFFE
FFFE
FFFE
FFFE
FFFE
FFC0
FFC0
FFC0
FFC0
FFC0
FFC0
FFC0
FFC0
FFC0
FFC0
FFC0
FFC0
FFC0
FFC0
FFC0
FFC0
FFC0
FFC0
FFC0
FFC0
FFC0
FFC0
FFC0
FFC0
FFC0
FFC0
FFC0
FFC0
FFC0
FFC0
FFFE
FFFE
FFFE
FFFE
FFFE
ENDCHAR
STARTCHAR 005C
ENCODING 92
SWIDTH 525 0
DWIDTH 35 0
BBX 30 40 0 0
BITMAP
FFC00000
FFC00000
FFC00000
FFC00000
FFC00000
07FE0000
07FE0000
07FE0000
07FE0000
07FE0000
07FE0000
07FE0000
07FE0000
07FE0000
07FE0000
003FF000
003FF000
003FF000
003FF000
003FF000
003FF000
003FF000
003FF000
003FF000
003FF000
0001FF80
0001FF80
0001FF80
0001FF80
0001FF80
0001FF80
0001FF80
0001FF80
0001FF80
0001FF80
00000FFC
00000FFC
00000FFC
00000FFC
00000FFC
ENDCHAR
STARTCHAR 005D
ENCODING 93
SWIDTH 300 0
DWIDTH 20 0
BBX 15 40 0 0
BITMAP
FFFE
FFFE
FFFE
FFFE
FFFE
07FE
07FE
07FE
07FE
07FE
07FE
07FE
07FE
07FE
07FE
07FE
07FE
07FE
07FE
07FE
07FE
07FE
07FE
07FE
07FE
07FE
07FE
07FE
07FE
07FE
07FE
07FE
07FE
07FE
07FE
FFFE
FFFE
FFFE
FFFE
FFFE
ENDCHAR
STARTCHAR 005E
ENCODING 94
SWIDTH 300 0
DWIDTH 20 0
BBX 15 15 0 25
BITMAP
07C0
07C0
07C0
07C0
07C0
FFFE
FFFE
FFFE
FFFE
FFFE
F83E
F83E
F83E
F83E
F83E
ENDCHAR
STARTCHAR 005F
ENCODING 95
SWIDTH 450 0
DWIDTH 30 0
BBX 25 5 0 -10
BITMAP
FFFFFF80
FFFFFF80
FFFFFF80
FFFFFF80
FFFFFF80
ENDCHAR
STARTCHAR 0060
ENCODING 96
SWIDTH 225 0
DWIDTH 15 0
BBX 10 10 0 30
BITMAP
FFC0
FFC0
FFC0
FFC0
FFC0
07C0
07C0
07C0
07C0
07C0
ENDCHAR
STARTCHAR 0061
ENCODING 97
SWIDTH 525 0
DWIDTH 35 0
BBX 30 25 0 0
BITMAP
07FFFF80
07FFFF80
07FFFF80
07FFFF80
07FFFF80
FFC00FFC
FFC00FFC
FFC00FFC
FFC00FFC
FFC00FFC
FFC00FFC
FFC00FFC
FFC00FFC
FFC00FFC
FFC00FFC
FFC1FFFC
FFC1FFFC
FFC1FFFC
FFC1FFFC
FFC1FFFC
07FE0FFC
07FE0FFC
07FE0FFC
07FE0FFC
07FE0FFC
ENDCHAR
STARTCHAR 0062
ENCODING 98
SWIDTH 525 0
DWIDTH 35 0
BBX 30 40 0 0
BITMAP
FFC00000
FFC00000
FFC00000
FFC00000
FFC00000
FFC00000
FFC00000
FFC00000
FFC00000
FFC00000
FFC00000
FFC00000
FFC00000
FFC00000
FFC00000
FFC1FF80
FFC1FF80
FFC1FF80
FFC1FF80
FFC1FF80
FFFE0FFC
FFFE0FFC
FFFE0FFC
FFFE0FFC
FFFE0FFC
FFC00FFC
FFC00FFC
FFC00FFC
FFC00FFC
FFC00FFC
FFC00FFC
FFC00FFC
FFC00FFC
FFC00FFC
FFC00FFC
FFFFFF80
FFFFFF80
FFFFFF80
FFFFFF80
FFFFFF80
ENDCHAR
STARTCHAR 0063
ENCODING 99
SWIDTH 525 0
DWIDTH 35 0
BBX 30 25 0 0
BITMAP
07FFFF80
07FFFF80
07FFFF80
07FFFF80
07FFFF80
FFC00FFC
FFC00FFC
FFC00FFC
FFC00FFC
FFC00FFC
FFC00000
FFC00000
FFC00000
FFC00000
FFC00000
FFC00FFC
FFC00FFC
FFC00FFC
FFC00FFC
FFC00FFC
07FFFF80
07FFFF80
07FFFF80
07FFFF80
07FFFF80
ENDCHAR
STARTCHAR 0064
ENCODING 100
SWIDTH 525 0
DWIDTH 35 0
BBX 30 40 0 0
BITMAP
00000FFC
00000FFC
00000FFC
00000FFC
00000FFC
00000FFC
00000FFC
00000FFC
00000FFC
00000FFC
00000FFC
00000FFC
00000FFC
00000FFC
00000FFC
07FE0FFC
07FE0FFC
07FE0FFC
07FE0FFC
07FE0FFC
FFC1FFFC
FFC1FFFC
FFC1FFFC
FFC1FFFC
FFC1FFFC
FFC00FFC
FFC00FFC
FFC00FFC
FFC00FFC
FFC00FFC
FFC00FFC
FFC00FFC
FFC00FFC
FFC00FFC
FFC00FFC
07FFFFFC
07FFFFFC
07FFFFFC
07FFFFFC
07FFFFFC
ENDCHAR
STARTCHAR 0065
ENCODING 101
SWIDTH 525 0
DWIDTH 35 0
BBX 30 25 0 0
BITMAP
07FFFF80
07FFFF80
07FFFF80
07FFFF80
07FFFF80
FFC00FFC
FFC00FFC
FFC00FFC
FFC00FFC
FFC00FFC
FFC1FFFC
FFC1FFFC
FFC1FFFC
FFC1FFFC
FFC1FFFC
FFFE0000
FFFE0000
FFFE0000
FFFE0000
FFFE0000
07FFF000
07FFF000
07FFF000
07FFF000
07FFF000
ENDCHAR
STARTCHAR 0066
ENCODING 102
SWIDTH 525 0
DWIDTH 35 0
BBX 30 40 0 0
BITMAP
07FFFF80
07FFFF80
07FFFF80
07FFFF80
07FFFF80
FFC00FFC
FFC00FFC
FFC00FFC
FFC00FFC
FFC00FFC
FFC00000
FFC00000
FFC00000
FFC00000
FFC00000
FFFE0000
FFFE0000
FFFE0000
FFFE0000
FFFE0000
FFC00000
FFC00000
FFC00000
FFC00000
FFC00000
FFC00000
FFC00000
FFC00000
FFC00000
FFC00000
FFC00000
FFC00000
FFC00000
FFC00000
FFC00000
FFC00000
FFC00000
FFC00000
FFC00000
FFC00000
ENDCHAR
STARTCHAR 0067
ENCODING 103
SWIDTH 525 0
DWIDTH 35 0
BBX 30 35 0 -10
BITMAP
07FFFF80
07FFFF80
07FFFF80
07FFFF80
07FFFF80
FFC00FFC
FFC00FFC
FFC00FFC
FFC00FFC
FFC00FFC
FFC00FFC
FFC00FFC
FFC00FFC
FFC00FFC
FFC00FFC
FFC1FFFC
FFC1FFFC
FFC1FFFC
FFC1FFFC
FFC1FFFC
07FE0FFC
07FE0FFC
07FE0FFC
07FE0FFC
07FE0FFC
00000FFC
00000FFC
00000FFC
00000FFC
00000FFC
003FFF80
003FFF80
003FFF80
003FFF80
003FFF80
ENDCHAR
STARTCHAR 0068
ENCODING 104
SWIDTH 525 0
DWIDTH 35 0
BBX 30 40 0 0
BITMAP
FFC00000
FFC00000
FFC00000
FFC00000
FFC00000
FFC00000
FFC00000
FFC00000
FFC00000
FFC00000
FFC00000
FFC00000
FFC00000
FFC00000
FFC00000
FFC1FF80
FFC1FF80
FFC1FF80
FFC1FF80
FFC1FF80
FFFE0FFC
FFFE0FFC
FFFE0FFC
FFFE0FFC
FFFE0FFC
FFC00FFC
FFC00FFC
FFC00FFC
FFC00FFC
FFC00FFC
FFC00FFC
FFC00FFC
FFC00FFC
FFC00FFC
FFC00FFC
FFC00FFC
FFC00FFC
FFC00FFC
FFC00FFC
FFC00FFC
ENDCHAR
STARTCHAR 0069
ENCODING 105
SWIDTH 225 0
DWIDTH 15 0
BBX 10 35 0 0
BITMAP
FFC0
FFC0
FFC0
FFC0
FFC0
0000
0000
0000
0000
0000
FFC0
FFC0
FFC0
FFC0
FFC0
FFC0
FFC0
FFC0
FFC0
FFC0
FFC0
FFC0
FFC0
FFC0
FFC0
FFC0
FFC0
FFC0
FFC0
FFC0
FFC0
FFC0
FFC0
FFC0
FFC0
ENDCHAR
STARTCHAR 006A
ENCODING 106
SWIDTH 375 0
DWIDTH 25 0
BBX 20 45 0 -10
BITMAP
003FF0
003FF0
003FF0
003FF0
003FF0
000000
000000
000000
000000
000000
003FF0
003FF0
003FF0
003FF0
003FF0
003FF0
003FF0
003FF0
003FF0
003FF0
003FF0
003FF0
003FF0
003FF0
003FF0
003FF0
003FF0
003FF0
003FF0
003FF0
003FF0
003FF0
003FF0
003FF0
003FF0
003FF0
003FF0
003FF0
003FF0
003FF0
FFFE00
FFFE00
FFFE00
FFFE00
FFFE00
ENDCHAR
STARTCHAR 006B
ENCODING 107
SWIDTH 525 0
DWIDTH 35 0
BBX 30 40 0 0
BITMAP
FFC00000
FFC00000
FFC00000
FFC00000
FFC00000
FFC00FFC
FFC00FFC
FFC00FFC
FFC00FFC
FFC00FFC
FFC00FFC
FFC00FFC
FFC00FFC
FFC00FFC
FFC00FFC
FFC1FF80
FFC1FF80
FFC1FF80
FFC1FF80
FFC1FF80
FFFE0FFC
FFFE0FFC
FFFE0FFC
FFFE0FFC
FFFE0FFC
FFC00FFC
FFC00FFC
FFC00FFC
FFC00FFC
FFC00FFC
FFC00FFC
FFC00FFC
FFC00FFC
FFC00FFC
FFC00FFC
FFC00FFC
FFC00FFC
FFC00FFC
FFC00FFC
FFC00FFC
ENDCHAR
STARTCHAR 006C
ENCODING 108
SWIDTH 225 0
DWIDTH 15 0
BBX 10 40 0 0
BITMAP
FFC0
FFC0
FFC0
FFC0
FFC0
FFC0
FFC0
FFC0
FFC0
FFC0
FFC0
FFC0
FFC0
FFC0
FFC0
FFC0
FFC0
FFC0
FFC0
FFC0
FFC0
FFC0
FFC0
FFC0
FFC0
FFC0
FFC0
FFC0
FFC0
FFC0
FFC0
FFC0
FFC0
FFC0
FFC0
FFC0
FFC0
FFC0
FFC0
FFC0
ENDCHAR
STARTCHAR 006D
ENCODING 109
SWIDTH 825 0
DWIDTH 55 0
BBX 50 25 0 0
BITMAP
FFC1FFFC1FF800
FFC1FFFC1FF800
FFC1FFFC1FF800
FFC1FFFC1FF800
FFC1FFFC1FF800
FFFE0FFFE0FFC0
FFFE0FFFE0FFC0
FFFE0FFFE0FFC0
FFFE0FFFE0FFC0
FFFE0FFFE0FFC0
FFC00FFC00FFC0
FFC00FFC00FFC0
FFC00FFC00FFC0
FFC00FFC00FFC0
FFC00FFC00FFC0
FFC00FFC00FFC0
FFC00FFC00FFC0
FFC00FFC00FFC0
FFC00FFC00FFC0
FFC00FFC00FFC0
FFC00FFC00FFC0
FFC00FFC00FFC0
FFC00FFC00FFC0
FFC00FFC00FFC0
FFC00FFC00FFC0
ENDCHAR
STARTCHAR 006E
ENCODING 110
SWIDTH 525 0
DWIDTH 35 0
BBX 30 25 0 0
BITMAP
FFC1FF80
FFC1FF80
FFC1FF80
FFC1FF80
FFC1FF80
FFFE0FFC
FFFE0FFC
FFFE0FFC
FFFE0FFC
FFFE0FFC
FFC00FFC
FFC00FFC
FFC00FFC
FFC00FFC
FFC00FFC
FFC00FFC
FFC00FFC
FFC00FFC
FFC00FFC
FFC00FFC
FFC00FFC
FFC00FFC
FFC00FFC
FFC00FFC
FFC00FFC
ENDCHAR
STARTCHAR 006F
ENCODING 111
SWIDTH 525 0
DWIDTH 35 0
BBX 30 25 0 0
BITMAP
07FFFF80
07FFFF80
07FFFF80
07FFFF80
07FFFF80
FFC00FFC
FFC00FFC
FFC00FFC
FFC00FFC
FFC00FFC
FFC00FFC
FFC00FFC
FFC00FFC
FFC00FFC
FFC00FFC
FFC00FFC
FFC00FFC
FFC00FFC
FFC00FFC
FFC00FFC
07FFFF80
07FFFF80
07FFFF80
07FFFF80
07FFFF80
ENDCHAR
STARTCHAR 0070
ENCODING 112
SWIDTH 525 0
DWIDTH 35 0
BBX 30 35 0 -10
BITMAP
FFFFFF80
FFFFFF80
FFFFFF80
FFFFFF80
FFFFFF80
FFC00FFC
FFC00FFC
FFC00FFC
FFC00FFC
FFC00FFC
FFC00FFC
FFC00FFC
FFC00FFC
FFC00FFC
FFC00FFC
FFFE0FFC
FFFE0FFC
FFFE0FFC
FFFE0FFC
FFFE0FFC
FFC1FF80
FFC1FF80
FFC1FF80
FFC1FF80
FFC1FF80
FFC00000
FFC00000
FFC00000
FFC00000
FFC00000
FFC00000
FFC00000
FFC00000
FFC00000
FFC00000
ENDCHAR
STARTCHAR 0071
ENCODING 113
SWIDTH 525 0
DWIDTH 35 0
BBX 30 35 0 -10
BITMAP
07FFFFFC
07FFFFFC
07FFFFFC
07FFFFFC
07FFFFFC
FFC00FFC
FFC00FFC
FFC00FFC
FFC00FFC
FFC00FFC
FFC00FFC
FFC00FFC
FFC00FFC
FFC00FFC
FFC00FFC
FFC1FFFC
FFC1FFFC
FFC1FFFC
FFC1FFFC
FFC1FFFC
07FE0FFC
07FE0FFC
07FE0FFC
07FE0FFC
07FE0FFC
00000FFC
00000FFC
00000FFC
00000FFC
00000FFC
00000FFC
00000FFC
00000FFC
00000FFC
00000FFC
ENDCHAR
STARTCHAR 0072
ENCODING 114
SWIDTH 525 0
DWIDTH 35 0
BBX 30 25 0 0
BITMAP
FFC1FF80
FFC1FF80
FFC1FF80
FFC1FF80
FFC1FF80
FFFE0FFC
FFFE0FFC
FFFE0FFC
FFFE0FFC
FFFE0FFC
FFC00000
FFC00000
FFC00000
FFC00000
FFC00000
FFC00000
FFC00000
FFC00000
FFC00000
FFC00000
FFC00000
FFC00000
FFC00000
FFC00000
FFC00000
ENDCHAR
STARTCHAR 0073
ENCODING 115
SWIDTH 525 0
DWIDTH 35 0
BBX 30 25 0 0
BITMAP
07FFFFFC
07FFFFFC
07FFFFFC
07FFFFFC
07FFFFFC
FFC00000
FFC00000
FFC00000
FFC00000
FFC00000
FFFFFFFC
FFFFFFFC
FFFFFFFC
FFFFFFFC
FFFFFFFC
00000FFC
00000FFC
00000FFC
00000FFC
00000FFC
FFFFFF80
FFFFFF80
FFFFFF80
FFFFFF80
FFFFFF80
ENDCHAR
STARTCHAR 0074
ENCODING 116
SWIDTH 375 0
DWIDTH 25 0
BBX 20 35 0 0
BITMAP
FFC000
FFC000
FFC000
FFC000
FFC000
FFC000
FFC000
FFC000
FFC000
FFC000
FFFFF0
FFFFF0
FFFFF0
FFFFF0
FFFFF0
FFC000
FFC000
FFC000
FFC000
FFC000
FFC000
FFC000
FFC000
FFC000
FFC000
FFC000
FFC000
FFC000
FFC000
FFC000
07FFF0
07FFF0
07FFF0
07FFF0
07FFF0
ENDCHAR
STARTCHAR 0075
ENCODING 117
SWIDTH 525 0
DWIDTH 35 0
BBX 30 25 0 0
BITMAP
FFC00FFC
FFC00FFC
FFC00FFC
FFC00FFC
FFC00FFC
FFC00FFC
FFC00FFC
FFC00FFC
FFC00FFC
FFC00FFC
FFC00FFC
FFC00FFC
FFC00FFC
FFC00FFC
FFC00FFC
FFC1FFFC
FFC1FFFC
FFC1FFFC
FFC1FFFC
FFC1FFFC
07FE0FFC
07FE0FFC
07FE0FFC
07FE0FFC
07FE0FFC
ENDCHAR
STARTCHAR 0076
ENCODING 118
SWIDTH 525 0
DWIDTH 35 0
BBX 30 25 0 0
BITMAP
FFC00FFC
FFC00FFC
FFC00FFC
FFC00FFC
FFC00FFC
FFC00FFC
FFC00FFC
FFC00FFC
FFC00FFC
FFC00FFC
FFC00FFC
FFC00FFC
FFC00FFC
FFC00FFC
FFC00FFC
07FFFF80
07FFFF80
07FFFF80
07FFFF80
07FFFF80
003FF000
003FF000
003FF000
003FF000
003FF000
ENDCHAR
STARTCHAR 0077
ENCODING 119
SWIDTH 825 0
DWIDTH 55 0
BBX 50 25 0 0
BITMAP
FFC00FFC00FFC0
FFC00FFC00FFC0
FFC00FFC00FFC0
FFC00FFC00FFC0
FFC00FFC00FFC0
FFC00FFC00FFC0
FFC00FFC00FFC0
FFC00FFC00FFC0
FFC00FFC00FFC0
FFC00FFC00FFC0
FFC00FFC00FFC0
FFC00FFC00FFC0
FFC00FFC00FFC0
FFC00FFC00FFC0
FFC00FFC00FFC0
FFC1FFFC1FF800
FFC1FFFC1FF800
FFC1FFFC1FF800
FFC1FFFC1FF800
FFC1FFFC1FF800
07FE0FFFFF0000
07FE0FFFFF0000
07FE0FFFFF0000
07FE0FFFFF0000
07FE0FFFFF0000
ENDCHAR
STARTCHAR 0078
ENCODING 120
SWIDTH 525 0
DWIDTH 35 0
BBX 30 25 0 0
BITMAP
FFC00FFC
FFC00FFC
FFC00FFC
FFC00FFC
FFC00FFC
07FFFF80
07FFFF80
07FFFF80
07FFFF80
07FFFF80
003FF000
003FF000
003FF000
003FF000
003FF000
07FFFF80
07FFFF80
07FFFF80
07FFFF80
07FFFF80
FFC00FFC
FFC00FFC
FFC00FFC
FFC00FFC
FFC00FFC
ENDCHAR
STARTCHAR 0079
ENCODING 121
SWIDTH 525 0
DWIDTH 35 0
BBX 30 35 0 -10
BITMAP
FFC00FFC
FFC00FFC
FFC00FFC
FFC00FFC
FFC00FFC
FFC00FFC
FFC00FFC
FFC00FFC
FFC00FFC
FFC00FFC
FFC00FFC
FFC00FFC
FFC00FFC
FFC00FFC
FFC00FFC
FFC1FFFC
FFC1FFFC
FFC1FFFC
FFC1FFFC
FFC1FFFC
07FE0FFC
07FE0FFC
07FE0FFC
07FE0FFC
07FE0FFC
00000FFC
00000FFC
00000FFC
00000FFC
00000FFC
003FFF80
003FFF80
003FFF80
003FFF80
003FFF80
ENDCHAR
STARTCHAR 007A
ENCODING 122
SWIDTH 525 0
DWIDTH 35 0
BBX 30 25 0 0
BITMAP
FFFFFFFC
FFFFFFFC
FFFFFFFC
FFFFFFFC
FFFFFFFC
0001FF80
0001FF80
0001FF80
0001FF80
0001FF80
003FF000
003FF000
003FF000
003FF000
003FF000
07FE0000
07FE0000
07FE0000
07FE0000
07FE0000
FFFFFFFC
FFFFFFFC
FFFFFFFC
FFFFFFFC
FFFFFFFC
ENDCHAR
STARTCHAR 007B
ENCODING 123
SWIDTH 375 0
DWIDTH 25 0
BBX 20 40 0 0
BITMAP
003FF0
003FF0
003FF0
003FF0
003FF0
07FE00
07FE00
07FE00
07FE00
07FE00
07FE00
07FE00
07FE00
07FE00
07FE00
FFC000
FFC000
FFC000
FFC000
FFC000
07FE00
07FE00
07FE00
07FE00
07FE00
07FE00
07FE00
07FE00
07FE00
07FE00
07FE00
07FE00
07FE00
07FE00
07FE00
003FF0
003FF0
003FF0
003FF0
003FF0
ENDCHAR
STARTCHAR 007C
ENCODING 124
SWIDTH 225 0
DWIDTH 15 0
BBX 10 60 0 -10
BITMAP
FFC0
FFC0
FFC0
FFC0
FFC0
FFC0
FFC0
FFC0
FFC0
FFC0
FFC0
FFC0
FFC0
FFC0
FFC0
FFC0
FFC0
FFC0
FFC0
FFC0
FFC0
FFC0
FFC0
FFC0
FFC0
FFC0
FFC0
FFC0
FFC0
FFC0
FFC0
FFC0
FFC0
FFC0
FFC0
FFC0
FFC0
FFC0
FFC0
FFC0
FFC0
FFC0
FFC0
FFC0
FFC0
FFC0
FFC0
FFC0
FFC0
FFC0
FFC0
FFC0
FFC0
FFC0
FFC0
FFC0
FFC0
FFC0
FFC0
FFC0
ENDCHAR
STARTCHAR 007D
ENCODING 125
SWIDTH 375 0
DWIDTH 25 0
BBX 20 40 0 0
BITMAP
FFC000
FFC000
FFC000
FFC000
FFC000
07FE00
07FE00
07FE00
07FE00
07FE00
07FE00
07FE00
07FE00
07FE00
07FE00
003FF0
003FF0
003FF0
003FF0
003FF0
07FE00
07FE00
07FE00
07FE00
07FE00
07FE00
07FE00
07FE00
07FE00
07FE00
07FE00
07FE00
07FE00
07FE00
07FE00
FFC000
FFC000
FFC000
FFC000
FFC000
ENDCHAR
STARTCHAR 007E
ENCODING 126
SWIDTH 600 0
DWIDTH 40 0
BBX 35 15 0 15
BITMAP
07FE007FE0
07FE007FE0
07FE007FE0
07FE007FE0
07FE007FE0
FFC1F07FE0
FFC1F07FE0
FFC1F07FE0
FFC1F07FE0
FFC1F07FE0
FFC00FFC00
FFC00FFC00
FFC00FFC00
FFC00FFC00
FFC00FFC00
ENDCHAR
STARTCHAR 007F
ENCODING 127
SWIDTH 525 0
DWIDTH 35 0
BBX 30 40 0 0
BITMAP
FFFFFFFC
FFFFFFFC
FFFFFFFC
FFFFFFFC
FFFFFFFC
FFFFFFFC
FFFFFFFC
FFFFFFFC
FFFFFFFC
FFFFFFFC
FFFFFFFC
FFFFFFFC
FFFFFFFC
FFFFFFFC
FFFFFFFC
FFFFFFFC
FFFFFFFC
FFFFFFFC
FFFFFFFC
FFFFFFFC
FFFFFFFC
FFFFFFFC
FFFFFFFC
FFFFFFFC
FFFFFFFC
FFFFFFFC
FFFFFFFC
FFFFFFFC
FFFFFFFC
FFFFFFFC
FFFFFFFC
FFFFFFFC
FFFFFFFC
FFFFFFFC
FFFFFFFC
FFFFFFFC
FFFFFFFC
FFFFFFFC
FFFFFFFC
FFFFFFFC
ENDCHAR
STARTCHAR 0080
ENCODING 128
SWIDTH 525 0
DWIDTH 35 0
BBX 30 40 0 0
BITMAP
FFFFFFFC
FFFFFFFC
FFFFFFFC
FFFFFFFC
FFFFFFFC
FFFFFFFC
FFFFFFFC
FFFFFFFC
FFFFFFFC
FFFFFFFC
FFFFFFFC
FFFFFFFC
FFFFFFFC
FFFFFFFC
FFFFFFFC
FFFFFFFC
FFFFFFFC
FFFFFFFC
FFFFFFFC
FFFFFFFC
FFFFFFFC
FFFFFFFC
FFFFFFFC
FFFFFFFC
FFFFFFFC
FFFFFFFC
FFFFFFFC
FFFFFFFC
FFFFFFFC
FFFFFFFC
FFFFFFFC
FFFFFFFC
FFFFFFFC
FFFFFFFC
FFFFFFFC
FFFFFFFC
FFFFFFFC
FFFFFFFC
FFFFFFFC
FFFFFFFC
ENDCHAR
STARTCHAR 0081
ENCODING 129
SWIDTH 525 0
DWIDTH 35 0
BBX 30 40 0 0
BITMAP
FFFFFFFC
FFFFFFFC
FFFFFFFC
FFFFFFFC
FFFFFFFC
FFFFFFFC
FFFFFFFC
FFFFFFFC
FFFFFFFC
FFFFFFFC
FFFFFFFC
FFFFFFFC
FFFFFFFC
FFFFFFFC
FFFFFFFC
FFFFFFFC
FFFFFFFC
FFFFFFFC
FFFFFFFC
FFFFFFFC
FFFFFFFC
FFFFFFFC
FFFFFFFC
FFFFFFFC
FFFFFFFC
FFFFFFFC
FFFFFFFC
FFFFFFFC
FFFFFFFC
FFFFFFFC
FFFFFFFC
FFFFFFFC
FFFFFFFC
FFFFFFFC
FFFFFFFC
FFFFFFFC
FFFFFFFC
FFFFFFFC
FFFFFFFC
FFFFFFFC
ENDCHAR
STARTCHAR 008D
ENCODING 141
SWIDTH 525 0
DWIDTH 35 0
BBX 30 40 0 0
BITMAP
FFFFFFFC
FFFFFFFC
FFFFFFFC
FFFFFFFC
FFFFFFFC
FFFFFFFC
FFFFFFFC
FFFFFFFC
FFFFFFFC
FFFFFFFC
FFFFFFFC
FFFFFFFC
FFFFFFFC
FFFFFFFC
FFFFFFFC
FFFFFFFC
FFFFFFFC
FFFFFFFC
FFFFFFFC
FFFFFFFC
FFFFFFFC
FFFFFFFC
FFFFFFFC
FFFFFFFC
FFFFFFFC
FFFFFFFC
FFFFFFFC
FFFFFFFC
FFFFFFFC
FFFFFFFC
FFFFFFFC
FFFFFFFC
FFFFFFFC
FFFFFFFC
FFFFFFFC
FFFFFFFC
FFFFFFFC
FFFFFFFC
FFFFFFFC
FFFFFFFC
ENDCHAR
STARTCHAR 008E
ENCODING 142
SWIDTH 525 0
DWIDTH 35 0
BBX 30 40 0 0
BITMAP
FFFFFFFC
FFFFFFFC
FFFFFFFC
FFFFFFFC
FFFFFFFC
FFFFFFFC
FFFFFFFC
FFFFFFFC
FFFFFFFC
FFFFFFFC
FFFFFFFC
FFFFFFFC
FFFFFFFC
FFFFFFFC
FFFFFFFC
FFFFFFFC
FFFFFFFC
FFFFFFFC
FFFFFFFC
FFFFFFFC
FFFFFFFC
FFFFFFFC
FFFFFFFC
FFFFFFFC
FFFFFFFC
FFFFFFFC
FFFFFFFC
FFFFFFFC
FFFFFFFC
FFFFFFFC
FFFFFFFC
FFFFFFFC
FFFFFFFC
FFFFFFFC
FFFFFFFC
FFFFFFFC
FFFFFFFC
FFFFFFFC
FFFFFFFC
FFFFFFFC
ENDCHAR
STARTCHAR 008F
ENCODING 143
SWIDTH 525 0
DWIDTH 35 0
BBX 30 40 0 0
BITMAP
FFFFFFFC
FFFFFFFC
FFFFFFFC
FFFFFFFC
FFFFFFFC
FFFFFFFC
FFFFFFFC
FFFFFFFC
FFFFFFFC
FFFFFFFC
FFFFFFFC
FFFFFFFC
FFFFFFFC
FFFFFFFC
FFFFFFFC
FFFFFFFC
FFFFFFFC
FFFFFFFC
FFFFFFFC
FFFFFFFC
FFFFFFFC
FFFFFFFC
FFFFFFFC
FFFFFFFC
FFFFFFFC
FFFFFFFC
FFFFFFFC
FFFFFFFC
FFFFFFFC
FFFFFFFC
FFFFFFFC
FFFFFFFC
FFFFFFFC
FFFFFFFC
FFFFFFFC
FFFFFFFC
FFFFFFFC
FFFFFFFC
FFFFFFFC
FFFFFFFC
ENDCHAR
STARTCHAR 0090
ENCODING 144
SWIDTH 525 0
DWIDTH 35 0
BBX 30 40 0 0
BITMAP
FFFFFFFC
FFFFFFFC
FFFFFFFC
FFFFFFFC
FFFFFFFC
FFFFFFFC
FFFFFFFC
FFFFFFFC
FFFFFFFC
FFFFFFFC
FFFFFFFC
FFFFFFFC
FFFFFFFC
FFFFFFFC
FFFFFFFC
FFFFFFFC
FFFFFFFC
FFFFFFFC
FFFFFFFC
FFFFFFFC
FFFFFFFC
FFFFFFFC
FFFFFFFC
FFFFFFFC
FFFFFFFC
FFFFFFFC
FFFFFFFC
FFFFFFFC
FFFFFFFC
FFFFFFFC
FFFFFFFC
FFFFFFFC
FFFFFFFC
FFFFFFFC
FFFFFFFC
FFFFFFFC
FFFFFFFC
FFFFFFFC
FFFFFFFC
FFFFFFFC
ENDCHAR
STARTCHAR 009D
ENCODING 157
SWIDTH 525 0
DWIDTH 35 0
BBX 30 40 0 0
BITMAP
FFFFFFFC
FFFFFFFC
FFFFFFFC
FFFFFFFC
FFFFFFFC
FFFFFFFC
FFFFFFFC
FFFFFFFC
FFFFFFFC
FFFFFFFC
FFFFFFFC
FFFFFFFC
FFFFFFFC
FFFFFFFC
FFFFFFFC
FFFFFFFC
FFFFFFFC
FFFFFFFC
FFFFFFFC
FFFFFFFC
FFFFFFFC
FFFFFFFC
FFFFFFFC
FFFFFFFC
FFFFFFFC
FFFFFFFC
FFFFFFFC
FFFFFFFC
FFFFFFFC
FFFFFFFC
FFFFFFFC
FFFFFFFC
FFFFFFFC
FFFFFFFC
FFFFFFFC
FFFFFFFC
FFFFFFFC
FFFFFFFC
FFFFFFFC
FFFFFFFC
ENDCHAR
STARTCHAR 009E
ENCODING 158
SWIDTH 525 0
DWIDTH 35 0
BBX 30 40 0 0
BITMAP
FFFFFFFC
FFFFFFFC
FFFFFFFC
FFFFFFFC
FFFFFFFC
FFFFFFFC
FFFFFFFC
FFFFFFFC
FFFFFFFC
FFFFFFFC
FFFFFFFC
FFFFFFFC
FFFFFFFC
FFFFFFFC
FFFFFFFC
FFFFFFFC
FFFFFFFC
FFFFFFFC
FFFFFFFC
FFFFFFFC
FFFFFFFC
FFFFFFFC
FFFFFFFC
FFFFFFFC
FFFFFFFC
FFFFFFFC
FFFFFFFC
FFFFFFFC
FFFFFFFC
FFFFFFFC
FFFFFFFC
FFFFFFFC
FFFFFFFC
FFFFFFFC
FFFFFFFC
FFFFFFFC
FFFFFFFC
FFFFFFFC
FFFFFFFC
FFFFFFFC
ENDCHAR
STARTCHAR 00A0
ENCODING 160
SWIDTH 525 0
DWIDTH 35 0
BBX 0 0 0 0
BITMAP
ENDCHAR
STARTCHAR 00A1
ENCODING 161
SWIDTH 225 0
DWIDTH 15 0
BBX 10 40 0 0
BITMAP
FFC0
FFC0
FFC0
FFC0
FFC0
0000
0000
0000
0000
0000
FFC0
FFC0
FFC0
FFC0
FFC0
FFC0
FFC0
FFC0
FFC0
FFC0
FFC0
FFC0
FFC0
FFC0
FFC0
FFC0
FFC0
FFC0
FFC0
FFC0
FFC0
FFC0
FFC0
FFC0
FFC0
FFC0
FFC0
FFC0
FFC0
FFC0
ENDCHAR
STARTCHAR 00A2
ENCODING 162
SWIDTH 525 0
DWIDTH 35 0
BBX 30 45 0 -10
BITMAP
0001F000
0001F000
0001F000
0001F000
0001F000
003FF000
003FF000
003FF000
003FF000
003FF000
07FFFF80
07FFFF80
07FFFF80
07FFFF80
07FFFF80
FFC00FFC
FFC00FFC
FFC00FFC
FFC00FFC
FFC00FFC
FFC00000
FFC00000
FFC00000
FFC00000
FFC00000
FFC00FFC
FFC00FFC
FFC00FFC
FFC00FFC
FFC00FFC
07FFFF80
07FFFF80
07FFFF80
07FFFF80
07FFFF80
003FF000
003FF000
003FF000
003FF000
003FF000
003E0000
003E0000
003E0000
003E0000
003E0000
ENDCHAR
STARTCHAR 00A3
ENCODING 163
SWIDTH 600 0
DWIDTH 40 0
BBX 35 40 0 0
BITMAP
003FFFFC00
003FFFFC00
003FFFFC00
003FFFFC00
003FFFFC00
07FE007FE0
07FE007FE0
07FE007FE0
07FE007FE0
07FE007FE0
07FE000000
07FE000000
07FE000000
07FE000000
07FE000000
FFFFF00000
FFFFF00000
FFFFF00000
FFFFF00000
FFFFF00000
07FE000000
07FE000000
07FE000000
07FE000000
07FE000000
07FE000000
07FE000000
07FE000000
07FE000000
07FE000000
07FE007FE0
07FE007FE0
07FE007FE0
07FE007FE0
07FE007FE0
FFC1FFFC00
FFC1FFFC00
FFC1FFFC00
FFC1FFFC00
FFC1FFFC00
ENDCHAR
STARTCHAR 00A4
ENCODING 164
SWIDTH 450 0
DWIDTH 30 0
BBX 25 25 0 10
BITMAP
F8000F80
F8000F80
F8000F80
F8000F80
F8000F80
07FFF000
07FFF000
07FFF000
07FFF000
07FFF000
07C1F000
07C1F000
07C1F000
07C1F000
07C1F000
07FFF000
07FFF000
07FFF000
07FFF000
07FFF000
F8000F80
F8000F80
F8000F80
F8000F80
F8000F80
ENDCHAR
STARTCHAR 00A5
ENCODING 165
SWIDTH 525 0
DWIDTH 35 0
BBX 30 45 0 -5
BITMAP
FFC00FFC
FFC00FFC
FFC00FFC
FFC00FFC
FFC00FFC
FFC00FFC
FFC00FFC
FFC00FFC
FFC00FFC
FFC00FFC
FFC00FFC
FFC00FFC
FFC00FFC
FFC00FFC
FFC00FFC
07FFFF80
07FFFF80
07FFFF80
07FFFF80
07FFFF80
003FF000
003FF000
003FF000
003FF000
003FF000
FFFFFFFC
FFFFFFFC
FFFFFFFC
FFFFFFFC
FFFFFFFC
003FF000
003FF000
003FF000
003FF000
003FF000
FFFFFFFC
FFFFFFFC
FFFFFFFC
FFFFFFFC
FFFFFFFC
003FF000
003FF000
003FF000
003FF000
003FF000
ENDCHAR
STARTCHAR 00A6
ENCODING 166
SWIDTH 225 0
DWIDTH 15 0
BBX 10 60 0 -10
BITMAP
FFC0
FFC0
FFC0
FFC0
FFC0
FFC0
FFC0
FFC0
FFC0
FFC0
FFC0
FFC0
FFC0
FFC0
FFC0
FFC0
FFC0
FFC0
FFC0
FFC0
FFC0
FFC0
FFC0
FFC0
FFC0
0000
0000
0000
0000
0000
0000
0000
0000
0000
0000
FFC0
FFC0
FFC0
FFC0
FFC0
FFC0
FFC0
FFC0
FFC0
FFC0
FFC0
FFC0
FFC0
FFC0
FFC0
FFC0
FFC0
FFC0
FFC0
FFC0
FFC0
FFC0
FFC0
FFC0
FFC0
ENDCHAR
STARTCHAR 00A7
ENCODING 167
SWIDTH 525 0
DWIDTH 35 0
BBX 30 60 0 -10
BITMAP
07FFFF80
07FFFF80
07FFFF80
07FFFF80
07FFFF80
FFC00FFC
FFC00FFC
FFC00FFC
FFC00FFC
FFC00FFC
FFC00000
FFC00000
FFC00000
FFC00000
FFC00000
FFC1FF80
FFC1FF80
FFC1FF80
FFC1FF80
FFC1FF80
07FE0FFC
07FE0FFC
07FE0FFC
07FE0FFC
07FE0FFC
FFC00FFC
FFC00FFC
FFC00FFC
FFC00FFC
FFC00FFC
FFC00FFC
FFC00FFC
FFC00FFC
FFC00FFC
FFC00FFC
FFC1FF80
FFC1FF80
FFC1FF80
FFC1FF80
FFC1FF80
07FE0FFC
07FE0FFC
07FE0FFC
07FE0FFC
07FE0FFC
00000FFC
00000FFC
00000FFC
00000FFC
00000FFC
FFC00FFC
FFC00FFC
FFC00FFC
FFC00FFC
FFC00FFC
07FFFF80
07FFFF80
07FFFF80
07FFFF80
07FFFF80
ENDCHAR
STARTCHAR 00A8
ENCODING 168
SWIDTH 525 0
DWIDTH 35 0
BBX 30 5 0 45
BITMAP
FFC00FFC
FFC00FFC
FFC00FFC
FFC00FFC
FFC00FFC
ENDCHAR
STARTCHAR 00A9
ENCODING 169
SWIDTH 750 0
DWIDTH 50 0
BBX 45 40 0 0
BITMAP
07FFFFFFFF00
07FFFFFFFF00
07FFFFFFFF00
07FFFFFFFF00
07FFFFFFFF00
FFC000001FF8
FFC000001FF8
FFC000001FF8
FFC000001FF8
FFC000001FF8
FFC1FFFC1FF8
FFC1FFFC1FF8
FFC1FFFC1FF8
FFC1FFFC1FF8
FFC1FFFC1FF8
FFC1F0001FF8
FFC1F0001FF8
FFC1F0001FF8
FFC1F0001FF8
FFC1F0001FF8
FFC1F0001FF8
FFC1F0001FF8
FFC1F0001FF8
FFC1F0001FF8
FFC1F0001FF8
FFC1FFFC1FF8
FFC1FFFC1FF8
FFC1FFFC1FF8
FFC1FFFC1FF8
FFC1FFFC1FF8
FFC000001FF8
FFC000001FF8
FFC000001FF8
FFC000001FF8
FFC000001FF8
07FFFFFFFF00
07FFFFFFFF00
07FFFFFFFF00
07FFFFFFFF00
07FFFFFFFF00
ENDCHAR
STARTCHAR 00AA
ENCODING 170
SWIDTH 300 0
DWIDTH 20 0
BBX 15 25 0 25
BITMAP
FFFE
FFFE
FFFE
FFFE
FFFE
003E
003E
003E
003E
003E
FFFE
FFFE
FFFE
FFFE
FFFE
F83E
F83E
F83E
F83E
F83E
FFFE
FFFE
FFFE
FFFE
FFFE
ENDCHAR
STARTCHAR 00AB
ENCODING 171
SWIDTH 525 0
DWIDTH 35 0
BBX 30 15 0 15
BITMAP
07FE0FFC
07FE0FFC
07FE0FFC
07FE0FFC
07FE0FFC
FFC1FF80
FFC1FF80
FFC1FF80
FFC1FF80
FFC1FF80
07FE0FFC
07FE0FFC
07FE0FFC
07FE0FFC
07FE0FFC
ENDCHAR
STARTCHAR 00AC
ENCODING 172
SWIDTH 450 0
DWIDTH 30 0
BBX 25 10 0 15
BITMAP
FFFFFF80
FFFFFF80
FFFFFF80
FFFFFF80
FFFFFF80
0001FF80
0001FF80
0001FF80
0001FF80
0001FF80
ENDCHAR
STARTCHAR 00AD
ENCODING 173
SWIDTH 225 0
DWIDTH 15 0
BBX 10 5 0 20
BITMAP
FFC0
FFC0
FFC0
FFC0
FFC0
ENDCHAR
STARTCHAR 00AE
ENCODING 174
SWIDTH 750 0
DWIDTH 50 0
BBX 45 40 0 0
BITMAP
07FFFFFFFF00
07FFFFFFFF00
07FFFFFFFF00
07FFFFFFFF00
07FFFFFFFF00
FFC000001FF8
FFC000001FF8
FFC000001FF8
FFC000001FF8
FFC000001FF8
FFC1FFFC1FF8
FFC1FFFC1FF8
FFC1FFFC1FF8
FFC1FFFC1FF8
FFC1FFFC1FF8
FFC1F07C1FF8
FFC1F07C1FF8
FFC1F07C1FF8
FFC1F07C1FF8
FFC1F07C1FF8
FFC1FF801FF8
FFC1FF801FF8
FFC1FF801FF8
FFC1FF801FF8
FFC1FF801FF8
FFC1F07C1FF8
FFC1F07C1FF8
FFC1F07C1FF8
FFC1F07C1FF8
FFC1F07C1FF8
FFC000001FF8
FFC000001FF8
FFC000001FF8
FFC000001FF8
FFC000001FF8
07FFFFFFFF00
07FFFFFFFF00
07FFFFFFFF00
07FFFFFFFF00
07FFFFFFFF00
ENDCHAR
STARTCHAR 00AF
ENCODING 175
SWIDTH 450 0
DWIDTH 30 0
BBX 25 5 0 45
BITMAP
FFFFFF80
FFFFFF80
FFFFFF80
FFFFFF80
FFFFFF80
ENDCHAR
STARTCHAR 00B0
ENCODING 176
SWIDTH 300 0
DWIDTH 20 0
BBX 15 15 0 35
BITMAP
FFFE
FFFE
FFFE
FFFE
FFFE
F83E
F83E
F83E
F83E
F83E
FFFE
FFFE
FFFE
FFFE
FFFE
ENDCHAR
STARTCHAR 00B1
ENCODING 177
SWIDTH 450 0
DWIDTH 30 0
BBX 25 35 0 5
BITMAP
003E0000
003E0000
003E0000
003E0000
003E0000
003E0000
003E0000
003E0000
003E0000
003E0000
FFFFFF80
FFFFFF80
FFFFFF80
FFFFFF80
FFFFFF80
003E0000
003E0000
003E0000
003E0000
003E0000
003E0000
003E0000
003E0000
003E0000
003E0000
00000000
00000000
00000000
00000000
00000000
FFFFFF80
FFFFFF80
FFFFFF80
FFFFFF80
FFFFFF80
ENDCHAR
STARTCHAR 00B2
ENCODING 178
SWIDTH 300 0
DWIDTH 20 0
BBX 15 25 0 25
BITMAP
FFFE
FFFE
FFFE
FFFE
FFFE
003E
003E
003E
003E
003E
FFFE
FFFE
FFFE
FFFE
FFFE
F800
F800
F800
F800
F800
FFFE
FFFE
FFFE
FFFE
FFFE
ENDCHAR
STARTCHAR 00B3
ENCODING 179
SWIDTH 300 0
DWIDTH 20 0
BBX 15 25 0 25
BITMAP
FFFE
FFFE
FFFE
FFFE
FFFE
003E
003E
003E
003E
003E
07FE
07FE
07FE
07FE
07FE
003E
003E
003E
003E
003E
FFFE
FFFE
FFFE
FFFE
FFFE
ENDCHAR
STARTCHAR 00B4
ENCODING 180
SWIDTH 225 0
DWIDTH 15 0
BBX 10 10 0 40
BITMAP
07C0
07C0
07C0
07C0
07C0
F800
F800
F800
F800
F800
ENDCHAR
STARTCHAR 00B5
ENCODING 181
SWIDTH 525 0
DWIDTH 35 0
BBX 30 35 0 -10
BITMAP
FFC00FFC
FFC00FFC
FFC00FFC
FFC00FFC
FFC00FFC
FFC00FFC
FFC00FFC
FFC00FFC
FFC00FFC
FFC00FFC
FFC00FFC
FFC00FFC
FFC00FFC
FFC00FFC
FFC00FFC
FFFE0FFC
FFFE0FFC
FFFE0FFC
FFFE0FFC
FFFE0FFC
FFC1FF80
FFC1FF80
FFC1FF80
FFC1FF80
FFC1FF80
FFC00000
FFC00000
FFC00000
FFC00000
FFC00000
FFC00000
FFC00000
FFC00000
FFC00000
FFC00000
ENDCHAR
STARTCHAR 00B6
ENCODING 182
SWIDTH 525 0
DWIDTH 35 0
BBX 30 40 0 0
BITMAP
07FFFFFC
07FFFFFC
07FFFFFC
07FFFFFC
07FFFFFC
FFFFF07C
FFFFF07C
FFFFF07C
FFFFF07C
FFFFF07C
FFFFF07C
FFFFF07C
FFFFF07C
FFFFF07C
FFFFF07C
07FFF07C
07FFF07C
07FFF07C
07FFF07C
07FFF07C
0001F07C
0001F07C
0001F07C
0001F07C
0001F07C
0001F07C
0001F07C
0001F07C
0001F07C
0001F07C
0001F07C
0001F07C
0001F07C
0001F07C
0001F07C
0001F07C
0001F07C
0001F07C
0001F07C
0001F07C
ENDCHAR
STARTCHAR 00B7
ENCODING 183
SWIDTH 300 0
DWIDTH 20 0
BBX 15 15 0 15
BITMAP
FFFE
FFFE
FFFE
FFFE
FFFE
FFFE
FFFE
FFFE
FFFE
FFFE
FFFE
FFFE
FFFE
FFFE
FFFE
ENDCHAR
STARTCHAR 00B8
ENCODING 184
SWIDTH 225 0
DWIDTH 15 0
BBX 10 10 0 -10
BITMAP
07C0
07C0
07C0
07C0
07C0
FFC0
FFC0
FFC0
FFC0
FFC0
ENDCHAR
STARTCHAR 00B9
ENCODING 185
SWIDTH 225 0
DWIDTH 15 0
BBX 10 25 0 25
BITMAP
FFC0
FFC0
FFC0
FFC0
FFC0
07C0
07C0
07C0
07C0
07C0
07C0
07C0
07C0
07C0
07C0
07C0
07C0
07C0
07C0
07C0
07C0
07C0
07C0
07C0
07C0
ENDCHAR
STARTCHAR 00BA
ENCODING 186
SWIDTH 300 0
DWIDTH 20 0
BBX 15 25 0 25
BITMAP
FFFE
FFFE
FFFE
FFFE
FFFE
F83E
F83E
F83E
F83E
F83E
F83E
F83E
F83E
F83E
F83E
F83E
F83E
F83E
F83E
F83E
FFFE
FFFE
FFFE
FFFE
FFFE
ENDCHAR
STARTCHAR 00BB
ENCODING 187
SWIDTH 525 0
DWIDTH 35 0
BBX 30 15 0 15
BITMAP
FFC1FF80
FFC1FF80
FFC1FF80
FFC1FF80
FFC1FF80
07FE0FFC
07FE0FFC
07FE0FFC
07FE0FFC
07FE0FFC
FFC1FF80
FFC1FF80
FFC1FF80
FFC1FF80
FFC1FF80
ENDCHAR
STARTCHAR 00BC
ENCODING 188
SWIDTH 675 0
DWIDTH 45 0
BBX 40 50 0 -5
BITMAP
FFC0000000
FFC0000000
FFC0000000
FFC0000000
FFC0000000
07C0007FE0
07C0007FE0
07C0007FE0
07C0007FE0
07C0007FE0
07C00FFC00
07C00FFC00
07C00FFC00
07C00FFC00
07C00FFC00
07C00FFC00
07C00FFC00
07C00FFC00
07C00FFC00
07C00FFC00
0001FF8000
0001FF8000
0001FF8000
0001FF8000
0001FF8000
0001FF8000
0001FF8000
0001FF8000
0001FF8000
0001FF8000
003FF07C1F
003FF07C1F
003FF07C1F
003FF07C1F
003FF07C1F
003FF07C1F
003FF07C1F
003FF07C1F
003FF07C1F
003FF07C1F
07FE007FFF
07FE007FFF
07FE007FFF
07FE007FFF
07FE007FFF
000000001F
000000001F
000000001F
000000001F
000000001F
ENDCHAR
STARTCHAR 00BD
ENCODING 189
SWIDTH 675 0
DWIDTH 45 0
BBX 40 50 0 -5
BITMAP
FFC0000000
FFC0000000
FFC0000000
FFC0000000
FFC0000000
07C0007FE0
07C0007FE0
07C0007FE0
07C0007FE0
07C0007FE0
07C00FFC00
07C00FFC00
07C00FFC00
07C00FFC00
07C00FFC00
07C00FFC00
07C00FFC00
07C00FFC00
07C00FFC00
07C00FFC00
0001FF8000
0001FF8000
0001FF8000
0001FF8000
0001FF8000
0001FF8000
0001FF8000
0001FF8000
0001FF8000
0001FF8000
003FF07FFF
003FF07FFF
003FF07FFF
003FF07FFF
003FF07FFF
003FF0001F
003FF0001F
003FF0001F
003FF0001F
003FF0001F
07FE007FE0
07FE007FE0
07FE007FE0
07FE007FE0
07FE007FE0
0000007FFF
0000007FFF
0000007FFF
0000007FFF
0000007FFF
ENDCHAR
STARTCHAR 00BE
ENCODING 190
SWIDTH 675 0
DWIDTH 45 0
BBX 40 50 0 -5
BITMAP
FFFE000000
FFFE000000
FFFE000000
FFFE000000
FFFE000000
07FE007FE0
07FE007FE0
07FE007FE0
07FE007FE0
07FE007FE0
003E0FFC00
003E0FFC00
003E0FFC00
003E0FFC00
003E0FFC00
FFFE0FFC00
FFFE0FFC00
FFFE0FFC00
FFFE0FFC00
FFFE0FFC00
0001FF8000
0001FF8000
0001FF8000
0001FF8000
0001FF8000
0001FF8000
0001FF8000
0001FF8000
0001FF8000
0001FF8000
003FF07C1F
003FF07C1F
003FF07C1F
003FF07C1F
003FF07C1F
003FF07C1F
003FF07C1F
003FF07C1F
003FF07C1F
003FF07C1F
07FE007FFF
07FE007FFF
07FE007FFF
07FE007FFF
07FE007FFF
000000001F
000000001F
000000001F
000000001F
000000001F
ENDCHAR
STARTCHAR 00BF
ENCODING 191
SWIDTH 525 0
DWIDTH 35 0
BBX 30 40 0 0
BITMAP
003FF000
003FF000
003FF000
003FF000
003FF000
00000000
00000000
00000000
00000000
00000000
003FF000
003FF000
003FF000
003FF000
003FF000
003FF000
003FF000
003FF000
003FF000
003FF000
07FE0000
07FE0000
07FE0000
07FE0000
07FE0000
FFC00000
FFC00000
FFC00000
FFC00000
FFC00000
FFC00FFC
FFC00FFC
FFC00FFC
FFC00FFC
FFC00FFC
07FFFF80
07FFFF80
07FFFF80
07FFFF80
07FFFF80
ENDCHAR
STARTCHAR 00C0
ENCODING 192
SWIDTH 525 0
DWIDTH 35 0
BBX 30 50 0 0
BITMAP
003E0000
003E0000
003E0000
003E0000
003E0000
0001F000
0001F000
0001F000
0001F000
0001F000
07FFFF80
07FFFF80
07FFFF80
07FFFF80
07FFFF80
FFC00FFC
FFC00FFC
FFC00FFC
FFC00FFC
FFC00FFC
FFC00FFC
FFC00FFC
FFC00FFC
FFC00FFC
FFC00FFC
FFC1FFFC
FFC1FFFC
FFC1FFFC
FFC1FFFC
FFC1FFFC
FFFE0FFC
FFFE0FFC
FFFE0FFC
FFFE0FFC
FFFE0FFC
FFC00FFC
FFC00FFC
FFC00FFC
FFC00FFC
FFC00FFC
FFC00FFC
FFC00FFC
FFC00FFC
FFC00FFC
FFC00FFC
FFC00FFC
FFC00FFC
FFC00FFC
FFC00FFC
FFC00FFC
ENDCHAR
STARTCHAR 00C1
ENCODING 193
SWIDTH 525 0
DWIDTH 35 0
BBX 30 50 0 0
BITMAP
0001F000
0001F000
0001F000
0001F000
0001F000
003E0000
003E0000
003E0000
003E0000
003E0000
07FFFF80
07FFFF80
07FFFF80
07FFFF80
07FFFF80
FFC00FFC
FFC00FFC
FFC00FFC
FFC00FFC
FFC00FFC
FFC00FFC
FFC00FFC
FFC00FFC
FFC00FFC
FFC00FFC
FFC1FFFC
FFC1FFFC
FFC1FFFC
FFC1FFFC
FFC1FFFC
FFFE0FFC
FFFE0FFC
FFFE0FFC
FFFE0FFC
FFFE0FFC
FFC00FFC
FFC00FFC
FFC00FFC
FFC00FFC
FFC00FFC
FFC00FFC
FFC00FFC
FFC00FFC
FFC00FFC
FFC00FFC
FFC00FFC
FFC00FFC
FFC00FFC
FFC00FFC
FFC00FFC
ENDCHAR
STARTCHAR 00C2
ENCODING 194
SWIDTH 525 0
DWIDTH 35 0
BBX 30 50 0 0
BITMAP
003FF000
003FF000
003FF000
003FF000
003FF000
07C00F80
07C00F80
07C00F80
07C00F80
07C00F80
07FFFF80
07FFFF80
07FFFF80
07FFFF80
07FFFF80
FFC00FFC
FFC00FFC
FFC00FFC
FFC00FFC
FFC00FFC
FFC00FFC
FFC00FFC
FFC00FFC
FFC00FFC
FFC00FFC
FFC1FFFC
FFC1FFFC
FFC1FFFC
FFC1FFFC
FFC1FFFC
FFFE0FFC
FFFE0FFC
FFFE0FFC
FFFE0FFC
FFFE0FFC
FFC00FFC
FFC00FFC
FFC00FFC
FFC00FFC
FFC00FFC
FFC00FFC
FFC00FFC
FFC00FFC
FFC00FFC
FFC00FFC
FFC00FFC
FFC00FFC
FFC00FFC
FFC00FFC
FFC00FFC
ENDCHAR
STARTCHAR 00C3
ENCODING 195
SWIDTH 525 0
DWIDTH 35 0
BBX 30 50 0 0
BITMAP
07FE0F80
07FE0F80
07FE0F80
07FE0F80
07FE0F80
07C1FF80
07C1FF80
07C1FF80
07C1FF80
07C1FF80
07FFFF80
07FFFF80
07FFFF80
07FFFF80
07FFFF80
FFC00FFC
FFC00FFC
FFC00FFC
FFC00FFC
FFC00FFC
FFC00FFC
FFC00FFC
FFC00FFC
FFC00FFC
FFC00FFC
FFC1FFFC
FFC1FFFC
FFC1FFFC
FFC1FFFC
FFC1FFFC
FFFE0FFC
FFFE0FFC
FFFE0FFC
FFFE0FFC
FFFE0FFC
FFC00FFC
FFC00FFC
FFC00FFC
FFC00FFC
FFC00FFC
FFC00FFC
FFC00FFC
FFC00FFC
FFC00FFC
FFC00FFC
FFC00FFC
FFC00FFC
FFC00FFC
FFC00FFC
FFC00FFC
ENDCHAR
STARTCHAR 00C4
ENCODING 196
SWIDTH 525 0
DWIDTH 35 0
BBX 30 50 0 0
BITMAP
FFC00FFC
FFC00FFC
FFC00FFC
FFC00FFC
FFC00FFC
00000000
00000000
00000000
00000000
00000000
07FFFF80
07FFFF80
07FFFF80
07FFFF80
07FFFF80
FFC00FFC
FFC00FFC
FFC00FFC
FFC00FFC
FFC00FFC
FFC00FFC
FFC00FFC
FFC00FFC
FFC00FFC
FFC00FFC
FFC1FFFC
FFC1FFFC
FFC1FFFC
FFC1FFFC
FFC1FFFC
FFFE0FFC
FFFE0FFC
FFFE0FFC
FFFE0FFC
FFFE0FFC
FFC00FFC
FFC00FFC
FFC00FFC
FFC00FFC
FFC00FFC
FFC00FFC
FFC00FFC
FFC00FFC
FFC00FFC
FFC00FFC
FFC00FFC
FFC00FFC
FFC00FFC
FFC00FFC
FFC00FFC
ENDCHAR
STARTCHAR 00C5
ENCODING 197
SWIDTH 525 0
DWIDTH 35 0
BBX 30 50 0 0
BITMAP
07FFFF80
07FFFF80
07FFFF80
07FFFF80
07FFFF80
07C00F80
07C00F80
07C00F80
07C00F80
07C00F80
07FFFF80
07FFFF80
07FFFF80
07FFFF80
07FFFF80
FFC00FFC
FFC00FFC
FFC00FFC
FFC00FFC
FFC00FFC
FFC00FFC
FFC00FFC
FFC00FFC
FFC00FFC
FFC00FFC
FFC1FFFC
FFC1FFFC
FFC1FFFC
FFC1FFFC
FFC1FFFC
FFFE0FFC
FFFE0FFC
FFFE0FFC
FFFE0FFC
FFFE0FFC
FFC00FFC
FFC00FFC
FFC00FFC
FFC00FFC
FFC00FFC
FFC00FFC
FFC00FFC
FFC00FFC
FFC00FFC
FFC00FFC
FFC00FFC
FFC00FFC
FFC00FFC
FFC00FFC
FFC00FFC
ENDCHAR
STARTCHAR 00C6
ENCODING 198
SWIDTH 825 0
DWIDTH 55 0
BBX 50 40 0 0
BITMAP
07FFFFFFFFF800
07FFFFFFFFF800
07FFFFFFFFF800
07FFFFFFFFF800
07FFFFFFFFF800
FFC00FFC00FFC0
FFC00FFC00FFC0
FFC00FFC00FFC0
FFC00FFC00FFC0
FFC00FFC00FFC0
FFC00FFC000000
FFC00FFC000000
FFC00FFC000000
FFC00FFC000000
FFC00FFC000000
FFC1FFFFFF0000
FFC1FFFFFF0000
FFC1FFFFFF0000
FFC1FFFFFF0000
FFC1FFFFFF0000
FFFE0FFC000000
FFFE0FFC000000
FFFE0FFC000000
FFFE0FFC000000
FFFE0FFC000000
FFC00FFC000000
FFC00FFC000000
FFC00FFC000000
FFC00FFC000000
FFC00FFC000000
FFC00FFC00FFC0
FFC00FFC00FFC0
FFC00FFC00FFC0
FFC00FFC00FFC0
FFC00FFC00FFC0
FFC0007FFFF800
FFC0007FFFF800
FFC0007FFFF800
FFC0007FFFF800
FFC0007FFFF800
ENDCHAR
STARTCHAR 00C7
ENCODING 199
SWIDTH 525 0
DWIDTH 35 0
BBX 30 50 0 -10
BITMAP
07FFFF80
07FFFF80
07FFFF80
07FFFF80
07FFFF80
FFC00FFC
FFC00FFC
FFC00FFC
FFC00FFC
FFC00FFC
FFC00000
FFC00000
FFC00000
FFC00000
FFC00000
FFC00000
FFC00000
FFC00000
FFC00000
FFC00000
FFC00000
FFC00000
FFC00000
FFC00000
FFC00000
FFC00000
FFC00000
FFC00000
FFC00000
FFC00000
FFC00FFC
FFC00FFC
FFC00FFC
FFC00FFC
FFC00FFC
07FFFF80
07FFFF80
07FFFF80
07FFFF80
07FFFF80
0001F000
0001F000
0001F000
0001F000
0001F000
003FF000
003FF000
003FF000
003FF000
003FF000
ENDCHAR
STARTCHAR 00C8
ENCODING 200
SWIDTH 525 0
DWIDTH 35 0
BBX 30 50 0 0
BITMAP
003E0000
003E0000
003E0000
003E0000
003E0000
0001F000
0001F000
0001F000
0001F000
0001F000
07FFFF80
07FFFF80
07FFFF80
07FFFF80
07FFFF80
FFC00FFC
FFC00FFC
FFC00FFC
FFC00FFC
FFC00FFC
FFC00000
FFC00000
FFC00000
FFC00000
FFC00000
FFFFF000
FFFFF000
FFFFF000
FFFFF000
FFFFF000
FFC00000
FFC00000
FFC00000
FFC00000
FFC00000
FFC00000
FFC00000
FFC00000
FFC00000
FFC00000
FFC00FFC
FFC00FFC
FFC00FFC
FFC00FFC
FFC00FFC
07FFFF80
07FFFF80
07FFFF80
07FFFF80
07FFFF80
ENDCHAR
STARTCHAR 00C9
ENCODING 201
SWIDTH 525 0
DWIDTH 35 0
BBX 30 50 0 0
BITMAP
0001F000
0001F000
0001F000
0001F000
0001F000
003E0000
003E0000
003E0000
003E0000
003E0000
07FFFF80
07FFFF80
07FFFF80
07FFFF80
07FFFF80
FFC00FFC
FFC00FFC
FFC00FFC
FFC00FFC
FFC00FFC
FFC00000
FFC00000
FFC00000
FFC00000
FFC00000
FFFFF000
FFFFF000
FFFFF000
FFFFF000
FFFFF000
FFC00000
FFC00000
FFC00000
FFC00000
FFC00000
FFC00000
FFC00000
FFC00000
FFC00000
FFC00000
FFC00FFC
FFC00FFC
FFC00FFC
FFC00FFC
FFC00FFC
07FFFF80
07FFFF80
07FFFF80
07FFFF80
07FFFF80
ENDCHAR
STARTCHAR 00CA
ENCODING 202
SWIDTH 525 0
DWIDTH 35 0
BBX 30 50 0 0
BITMAP
003FF000
003FF000
003FF000
003FF000
003FF000
07C00F80
07C00F80
07C00F80
07C00F80
07C00F80
07FFFF80
07FFFF80
07FFFF80
07FFFF80
07FFFF80
FFC00FFC
FFC00FFC
FFC00FFC
FFC00FFC
FFC00FFC
FFC00000
FFC00000
FFC00000
FFC00000
FFC00000
FFFFF000
FFFFF000
FFFFF000
FFFFF000
FFFFF000
FFC00000
FFC00000
FFC00000
FFC00000
FFC00000
FFC00000
FFC00000
FFC00000
FFC00000
FFC00000
FFC00FFC
FFC00FFC
FFC00FFC
FFC00FFC
FFC00FFC
07FFFF80
07FFFF80
07FFFF80
07FFFF80
07FFFF80
ENDCHAR
STARTCHAR 00CB
ENCODING 203
SWIDTH 525 0
DWIDTH 35 0
BBX 30 50 0 0
BITMAP
FFC00FFC
FFC00FFC
FFC00FFC
FFC00FFC
FFC00FFC
00000000
00000000
00000000
00000000
00000000
07FFFF80
07FFFF80
07FFFF80
07FFFF80
07FFFF80
FFC00FFC
FFC00FFC
FFC00FFC
FFC00FFC
FFC00FFC
FFC00000
FFC00000
FFC00000
FFC00000
FFC00000
FFFFF000
FFFFF000
FFFFF000
FFFFF000
FFFFF000
FFC00000
FFC00000
FFC00000
FFC00000
FFC00000
FFC00000
FFC00000
FFC00000
FFC00000
FFC00000
FFC00FFC
FFC00FFC
FFC00FFC
FFC00FFC
FFC00FFC
07FFFF80
07FFFF80
07FFFF80
07FFFF80
07FFFF80
ENDCHAR
STARTCHAR 00CC
ENCODING 204
SWIDTH 525 0
DWIDTH 35 0
BBX 30 50 0 0
BITMAP
003E0000
003E0000
003E0000
003E0000
003E0000
0001F000
0001F000
0001F000
0001F000
0001F000
FFFFFFFC
FFFFFFFC
FFFFFFFC
FFFFFFFC
FFFFFFFC
003FF000
003FF000
003FF000
003FF000
003FF000
003FF000
003FF000
003FF000
003FF000
003FF000
003FF000
003FF000
003FF000
003FF000
003FF000
003FF000
003FF000
003FF000
003FF000
003FF000
003FF000
003FF000
003FF000
003FF000
003FF000
003FF000
003FF000
003FF000
003FF000
003FF000
FFFFFFFC
FFFFFFFC
FFFFFFFC
FFFFFFFC
FFFFFFFC
ENDCHAR
STARTCHAR 00CD
ENCODING 205
SWIDTH 525 0
DWIDTH 35 0
BBX 30 50 0 0
BITMAP
0001F000
0001F000
0001F000
0001F000
0001F000
003E0000
003E0000
003E0000
003E0000
003E0000
FFFFFFFC
FFFFFFFC
FFFFFFFC
FFFFFFFC
FFFFFFFC
003FF000
003FF000
003FF000
003FF000
003FF000
003FF000
003FF000
003FF000
003FF000
003FF000
003FF000
003FF000
003FF000
003FF000
003FF000
003FF000
003FF000
003FF000
003FF000
003FF000
003FF000
003FF000
003FF000
003FF000
003FF000
003FF000
003FF000
003FF000
003FF000
003FF000
FFFFFFFC
FFFFFFFC
FFFFFFFC
FFFFFFFC
FFFFFFFC
ENDCHAR
STARTCHAR 00CE
ENCODING 206
SWIDTH 525 0
DWIDTH 35 0
BBX 30 50 0 0
BITMAP
003FF000
003FF000
003FF000
003FF000
003FF000
07C00F80
07C00F80
07C00F80
07C00F80
07C00F80
FFFFFFFC
FFFFFFFC
FFFFFFFC
FFFFFFFC
FFFFFFFC
003FF000
003FF000
003FF000
003FF000
003FF000
003FF000
003FF000
003FF000
003FF000
003FF000
003FF000
003FF000
003FF000
003FF000
003FF000
003FF000
003FF000
003FF000
003FF000
003FF000
003FF000
003FF000
003FF000
003FF000
003FF000
003FF000
003FF000
003FF000
003FF000
003FF000
FFFFFFFC
FFFFFFFC
FFFFFFFC
FFFFFFFC
FFFFFFFC
ENDCHAR
STARTCHAR 00CF
ENCODING 207
SWIDTH 525 0
DWIDTH 35 0
BBX 30 50 0 0
BITMAP
FFC00FFC
FFC00FFC
FFC00FFC
FFC00FFC
FFC00FFC
00000000
00000000
00000000
00000000
00000000
FFFFFFFC
FFFFFFFC
FFFFFFFC
FFFFFFFC
FFFFFFFC
003FF000
003FF000
003FF000
003FF000
003FF000
003FF000
003FF000
003FF000
003FF000
003FF000
003FF000
003FF000
003FF000
003FF000
003FF000
003FF000
003FF000
003FF000
003FF000
003FF000
003FF000
003FF000
003FF000
003FF000
003FF000
003FF000
003FF000
003FF000
003FF000
003FF000
FFFFFFFC
FFFFFFFC
FFFFFFFC
FFFFFFFC
FFFFFFFC
ENDCHAR
STARTCHAR 00D0
ENCODING 208
SWIDTH 600 0
DWIDTH 40 0
BBX 35 40 0 0
BITMAP
07FFFF8000
07FFFF8000
07FFFF8000
07FFFF8000
07FFFF8000
07FE0FFC00
07FE0FFC00
07FE0FFC00
07FE0FFC00
07FE0FFC00
07FE007FE0
07FE007FE0
07FE007FE0
07FE007FE0
07FE007FE0
FFFFF07FE0
FFFFF07FE0
FFFFF07FE0
FFFFF07FE0
FFFFF07FE0
07FE007FE0
07FE007FE0
07FE007FE0
07FE007FE0
07FE007FE0
07FE007FE0
07FE007FE0
07FE007FE0
07FE007FE0
07FE007FE0
07FE007FE0
07FE007FE0
07FE007FE0
07FE007FE0
07FE007FE0
07FFFFFC00
07FFFFFC00
07FFFFFC00
07FFFFFC00
07FFFFFC00
ENDCHAR
STARTCHAR 00D1
ENCODING 209
SWIDTH 525 0
DWIDTH 35 0
BBX 30 50 0 0
BITMAP
07FE0F80
07FE0F80
07FE0F80
07FE0F80
07FE0F80
07C1FF80
07C1FF80
07C1FF80
07C1FF80
07C1FF80
FFC1FF80
FFC1FF80
FFC1FF80
FFC1FF80
FFC1FF80
FFFE0FFC
FFFE0FFC
FFFE0FFC
FFFE0FFC
FFFE0FFC
FFC00FFC
FFC00FFC
FFC00FFC
FFC00FFC
FFC00FFC
FFC00FFC
FFC00FFC
FFC00FFC
FFC00FFC
FFC00FFC
FFC00FFC
FFC00FFC
FFC00FFC
FFC00FFC
FFC00FFC
FFC00FFC
FFC00FFC
FFC00FFC
FFC00FFC
FFC00FFC
FFC00FFC
FFC00FFC
FFC00FFC
FFC00FFC
FFC00FFC
FFC00FFC
FFC00FFC
FFC00FFC
FFC00FFC
FFC00FFC
ENDCHAR
STARTCHAR 00D2
ENCODING 210
SWIDTH 525 0
DWIDTH 35 0
BBX 30 50 0 0
BITMAP
003E0000
003E0000
003E0000
003E0000
003E0000
0001F000
0001F000
0001F000
0001F000
0001F000
07FFFF80
07FFFF80
07FFFF80
07FFFF80
07FFFF80
FFC00FFC
FFC00FFC
FFC00FFC
FFC00FFC
FFC00FFC
FFC00FFC
FFC00FFC
FFC00FFC
FFC00FFC
FFC00FFC
FFC00FFC
FFC00FFC
FFC00FFC
FFC00FFC
FFC00FFC
FFC00FFC
FFC00FFC
FFC00FFC
FFC00FFC
FFC00FFC
FFC00FFC
FFC00FFC
FFC00FFC
FFC00FFC
FFC00FFC
FFC00FFC
FFC00FFC
FFC00FFC
FFC00FFC
FFC00FFC
07FFFF80
07FFFF80
07FFFF80
07FFFF80
07FFFF80
ENDCHAR
STARTCHAR 00D3
ENCODING 211
SWIDTH 525 0
DWIDTH 35 0
BBX 30 50 0 0
BITMAP
0001F000
0001F000
0001F000
0001F000
0001F000
003E0000
003E0000
003E0000
003E0000
003E0000
07FFFF80
07FFFF80
07FFFF80
07FFFF80
07FFFF80
FFC00FFC
FFC00FFC
FFC00FFC
FFC00FFC
FFC00FFC
FFC00FFC
FFC00FFC
FFC00FFC
FFC00FFC
FFC00FFC
FFC00FFC
FFC00FFC
FFC00FFC
FFC00FFC
FFC00FFC
FFC00FFC
FFC00FFC
FFC00FFC
FFC00FFC
FFC00FFC
FFC00FFC
FFC00FFC
FFC00FFC
FFC00FFC
FFC00FFC
FFC00FFC
FFC00FFC
FFC00FFC
FFC00FFC
FFC00FFC
07FFFF80
07FFFF80
07FFFF80
07FFFF80
07FFFF80
ENDCHAR
STARTCHAR 00D4
ENCODING 212
SWIDTH 525 0
DWIDTH 35 0
BBX 30 50 0 0
BITMAP
003FF000
003FF000
003FF000
003FF000
003FF000
07C00F80
07C00F80
07C00F80
07C00F80
07C00F80
07FFFF80
07FFFF80
07FFFF80
07FFFF80
07FFFF80
FFC00FFC
FFC00FFC
FFC00FFC
FFC00FFC
FFC00FFC
FFC00FFC
FFC00FFC
FFC00FFC
FFC00FFC
FFC00FFC
FFC00FFC
FFC00FFC
FFC00FFC
FFC00FFC
FFC00FFC
FFC00FFC
FFC00FFC
FFC00FFC
FFC00FFC
FFC00FFC
FFC00FFC
FFC00FFC
FFC00FFC
FFC00FFC
FFC00FFC
FFC00FFC
FFC00FFC
FFC00FFC
FFC00FFC
FFC00FFC
07FFFF80
07FFFF80
07FFFF80
07FFFF80
07FFFF80
ENDCHAR
STARTCHAR 00D5
ENCODING 213
SWIDTH 525 0
DWIDTH 35 0
BBX 30 50 0 0
BITMAP
07FE0F80
07FE0F80
07FE0F80
07FE0F80
07FE0F80
07C1FF80
07C1FF80
07C1FF80
07C1FF80
07C1FF80
07FFFF80
07FFFF80
07FFFF80
07FFFF80
07FFFF80
FFC00FFC
FFC00FFC
FFC00FFC
FFC00FFC
FFC00FFC
FFC00FFC
FFC00FFC
FFC00FFC
FFC00FFC
FFC00FFC
FFC00FFC
FFC00FFC
FFC00FFC
FFC00FFC
FFC00FFC
FFC00FFC
FFC00FFC
FFC00FFC
FFC00FFC
FFC00FFC
FFC00FFC
FFC00FFC
FFC00FFC
FFC00FFC
FFC00FFC
FFC00FFC
FFC00FFC
FFC00FFC
FFC00FFC
FFC00FFC
07FFFF80
07FFFF80
07FFFF80
07FFFF80
07FFFF80
ENDCHAR
STARTCHAR 00D6
ENCODING 214
SWIDTH 525 0
DWIDTH 35 0
BBX 30 50 0 0
BITMAP
FFC00FFC
FFC00FFC
FFC00FFC
FFC00FFC
FFC00FFC
00000000
00000000
00000000
00000000
00000000
07FFFF80
07FFFF80
07FFFF80
07FFFF80
07FFFF80
FFC00FFC
FFC00FFC
FFC00FFC
FFC00FFC
FFC00FFC
FFC00FFC
FFC00FFC
FFC00FFC
FFC00FFC
FFC00FFC
FFC00FFC
FFC00FFC
FFC00FFC
FFC00FFC
FFC00FFC
FFC00FFC
FFC00FFC
FFC00FFC
FFC00FFC
FFC00FFC
FFC00FFC
FFC00FFC
FFC00FFC
FFC00FFC
FFC00FFC
FFC00FFC
FFC00FFC
FFC00FFC
FFC00FFC
FFC00FFC
07FFFF80
07FFFF80
07FFFF80
07FFFF80
07FFFF80
ENDCHAR
STARTCHAR 00D7
ENCODING 215
SWIDTH 450 0
DWIDTH 30 0
BBX 25 25 0 10
BITMAP
F8000F80
F8000F80
F8000F80
F8000F80
F8000F80
07C1F000
07C1F000
07C1F000
07C1F000
07C1F000
003E0000
003E0000
003E0000
003E0000
003E0000
07C1F000
07C1F000
07C1F000
07C1F000
07C1F000
F8000F80
F8000F80
F8000F80
F8000F80
F8000F80
ENDCHAR
STARTCHAR 00D8
ENCODING 216
SWIDTH 525 0
DWIDTH 35 0
BBX 30 60 0 -10
BITMAP
0000007C
0000007C
0000007C
0000007C
0000007C
00000FFC
00000FFC
00000FFC
00000FFC
00000FFC
07FFFFFC
07FFFFFC
07FFFFFC
07FFFFFC
07FFFFFC
FFC00FFC
FFC00FFC
FFC00FFC
FFC00FFC
FFC00FFC
FFC00FFC
FFC00FFC
FFC00FFC
FFC00FFC
FFC00FFC
FFC1FFFC
FFC1FFFC
FFC1FFFC
FFC1FFFC
FFC1FFFC
FFFE0FFC
FFFE0FFC
FFFE0FFC
FFFE0FFC
FFFE0FFC
FFC00FFC
FFC00FFC
FFC00FFC
FFC00FFC
FFC00FFC
FFC00FFC
FFC00FFC
FFC00FFC
FFC00FFC
FFC00FFC
FFFFFF80
FFFFFF80
FFFFFF80
FFFFFF80
FFFFFF80
FFC00000
FFC00000
FFC00000
FFC00000
FFC00000
F8000000
F8000000
F8000000
F8000000
F8000000
ENDCHAR
STARTCHAR 00D9
ENCODING 217
SWIDTH 525 0
DWIDTH 35 0
BBX 30 50 0 0
BITMAP
003E0000
003E0000
003E0000
003E0000
003E0000
0001F000
0001F000
0001F000
0001F000
0001F000
FFC00FFC
FFC00FFC
FFC00FFC
FFC00FFC
FFC00FFC
FFC00FFC
FFC00FFC
FFC00FFC
FFC00FFC
FFC00FFC
FFC00FFC
FFC00FFC
FFC00FFC
FFC00FFC
FFC00FFC
FFC00FFC
FFC00FFC
FFC00FFC
FFC00FFC
FFC00FFC
FFC00FFC
FFC00FFC
FFC00FFC
FFC00FFC
FFC00FFC
FFC00FFC
FFC00FFC
FFC00FFC
FFC00FFC
FFC00FFC
FFC1FFFC
FFC1FFFC
FFC1FFFC
FFC1FFFC
FFC1FFFC
07FE0FFC
07FE0FFC
07FE0FFC
07FE0FFC
07FE0FFC
ENDCHAR
STARTCHAR 00DA
ENCODING 218
SWIDTH 525 0
DWIDTH 35 0
BBX 30 50 0 0
BITMAP
0001F000
0001F000
0001F000
0001F000
0001F000
003E0000
003E0000
003E0000
003E0000
003E0000
FFC00FFC
FFC00FFC
FFC00FFC
FFC00FFC
FFC00FFC
FFC00FFC
FFC00FFC
FFC00FFC
FFC00FFC
FFC00FFC
FFC00FFC
FFC00FFC
FFC00FFC
FFC00FFC
FFC00FFC
FFC00FFC
FFC00FFC
FFC00FFC
FFC00FFC
FFC00FFC
FFC00FFC
FFC00FFC
FFC00FFC
FFC00FFC
FFC00FFC
FFC00FFC
FFC00FFC
FFC00FFC
FFC00FFC
FFC00FFC
FFC1FFFC
FFC1FFFC
FFC1FFFC
FFC1FFFC
FFC1FFFC
07FE0FFC
07FE0FFC
07FE0FFC
07FE0FFC
07FE0FFC
ENDCHAR
STARTCHAR 00DB
ENCODING 219
SWIDTH 525 0
DWIDTH 35 0
BBX 30 50 0 0
BITMAP
003FF000
003FF000
003FF000
003FF000
003FF000
07C00F80
07C00F80
07C00F80
07C00F80
07C00F80
FFC00FFC
FFC00FFC
FFC00FFC
FFC00FFC
FFC00FFC
FFC00FFC
FFC00FFC
FFC00FFC
FFC00FFC
FFC00FFC
FFC00FFC
FFC00FFC
FFC00FFC
FFC00FFC
FFC00FFC
FFC00FFC
FFC00FFC
FFC00FFC
FFC00FFC
FFC00FFC
FFC00FFC
FFC00FFC
FFC00FFC
FFC00FFC
FFC00FFC
FFC00FFC
FFC00FFC
FFC00FFC
FFC00FFC
FFC00FFC
FFC1FFFC
FFC1FFFC
FFC1FFFC
FFC1FFFC
FFC1FFFC
07FE0FFC
07FE0FFC
07FE0FFC
07FE0FFC
07FE0FFC
ENDCHAR
STARTCHAR 00DC
ENCODING 220
SWIDTH 525 0
DWIDTH 35 0
BBX 30 50 0 0
BITMAP
FFC00FFC
FFC00FFC
FFC00FFC
FFC00FFC
FFC00FFC
00000000
00000000
00000000
00000000
00000000
FFC00FFC
FFC00FFC
FFC00FFC
FFC00FFC
FFC00FFC
FFC00FFC
FFC00FFC
FFC00FFC
FFC00FFC
FFC00FFC
FFC00FFC
FFC00FFC
FFC00FFC
FFC00FFC
FFC00FFC
FFC00FFC
FFC00FFC
FFC00FFC
FFC00FFC
FFC00FFC
FFC00FFC
FFC00FFC
FFC00FFC
FFC00FFC
FFC00FFC
FFC00FFC
FFC00FFC
FFC00FFC
FFC00FFC
FFC00FFC
FFC1FFFC
FFC1FFFC
FFC1FFFC
FFC1FFFC
FFC1FFFC
07FE0FFC
07FE0FFC
07FE0FFC
07FE0FFC
07FE0FFC
ENDCHAR
STARTCHAR 00DD
ENCODING 221
SWIDTH 525 0
DWIDTH 35 0
BBX 30 50 0 0
BITMAP
0001F000
0001F000
0001F000
0001F000
0001F000
003E0000
003E0000
003E0000
003E0000
003E0000
FFC00FFC
FFC00FFC
FFC00FFC
FFC00FFC
FFC00FFC
FFC00FFC
FFC00FFC
FFC00FFC
FFC00FFC
FFC00FFC
FFC00FFC
FFC00FFC
FFC00FFC
FFC00FFC
FFC00FFC
FFC1FFFC
FFC1FFFC
FFC1FFFC
FFC1FFFC
FFC1FFFC
07FE0FFC
07FE0FFC
07FE0FFC
07FE0FFC
07FE0FFC
00000FFC
00000FFC
00000FFC
00000FFC
00000FFC
00000FFC
00000FFC
00000FFC
00000FFC
00000FFC
003FFF80
003FFF80
003FFF80
003FFF80
003FFF80
ENDCHAR
STARTCHAR 00DE
ENCODING 222
SWIDTH 525 0
DWIDTH 35 0
BBX 30 40 0 0
BITMAP
FFC00000
FFC00000
FFC00000
FFC00000
FFC00000
FFC1FF80
FFC1FF80
FFC1FF80
FFC1FF80
FFC1FF80
FFFE0FFC
FFFE0FFC
FFFE0FFC
FFFE0FFC
FFFE0FFC
FFC00FFC
FFC00FFC
FFC00FFC
FFC00FFC
FFC00FFC
FFC00FFC
FFC00FFC
FFC00FFC
FFC00FFC
FFC00FFC
FFFE0FFC
FFFE0FFC
FFFE0FFC
FFFE0FFC
FFFE0FFC
FFC1FF80
FFC1FF80
FFC1FF80
FFC1FF80
FFC1FF80
FFC00000
FFC00000
FFC00000
FFC00000
FFC00000
ENDCHAR
STARTCHAR 00DF
ENCODING 223
SWIDTH 525 0
DWIDTH 35 0
BBX 30 40 0 0
BITMAP
07FFFF80
07FFFF80
07FFFF80
07FFFF80
07FFFF80
FFC00FFC
FFC00FFC
FFC00FFC
FFC00FFC
FFC00FFC
FFC00FFC
FFC00FFC
FFC00FFC
FFC00FFC
FFC00FFC
FFC1FF80
FFC1FF80
FFC1FF80
FFC1FF80
FFC1FF80
FFFE0FFC
FFFE0FFC
FFFE0FFC
FFFE0FFC
FFFE0FFC
FFC00FFC
FFC00FFC
FFC00FFC
FFC00FFC
FFC00FFC
FFC00FFC
FFC00FFC
FFC00FFC
FFC00FFC
FFC00FFC
FFC1FF80
FFC1FF80
FFC1FF80
FFC1FF80
FFC1FF80
ENDCHAR
STARTCHAR 00E0
ENCODING 224
SWIDTH 525 0
DWIDTH 35 0
BBX 30 40 0 0
BITMAP
003E0000
003E0000
003E0000
003E0000
003E0000
0001F000
0001F000
0001F000
0001F000
0001F000
00000000
00000000
00000000
00000000
00000000
07FFFF80
07FFFF80
07FFFF80
07FFFF80
07FFFF80
FFC00FFC
FFC00FFC
FFC00FFC
FFC00FFC
FFC00FFC
FFC00FFC
FFC00FFC
FFC00FFC
FFC00FFC
FFC00FFC
FFC1FFFC
FFC1FFFC
FFC1FFFC
FFC1FFFC
FFC1FFFC
07FE0FFC
07FE0FFC
07FE0FFC
07FE0FFC
07FE0FFC
ENDCHAR
STARTCHAR 00E1
ENCODING 225
SWIDTH 525 0
DWIDTH 35 0
BBX 30 40 0 0
BITMAP
0001F000
0001F000
0001F000
0001F000
0001F000
003E0000
003E0000
003E0000
003E0000
003E0000
00000000
00000000
00000000
00000000
00000000
07FFFF80
07FFFF80
07FFFF80
07FFFF80
07FFFF80
FFC00FFC
FFC00FFC
FFC00FFC
FFC00FFC
FFC00FFC
FFC00FFC
FFC00FFC
FFC00FFC
FFC00FFC
FFC00FFC
FFC1FFFC
FFC1FFFC
FFC1FFFC
FFC1FFFC
FFC1FFFC
07FE0FFC
07FE0FFC
07FE0FFC
07FE0FFC
07FE0FFC
ENDCHAR
STARTCHAR 00E2
ENCODING 226
SWIDTH 525 0
DWIDTH 35 0
BBX 30 40 0 0
BITMAP
003FF000
003FF000
003FF000
003FF000
003FF000
07C00F80
07C00F80
07C00F80
07C00F80
07C00F80
00000000
00000000
00000000
00000000
00000000
07FFFF80
07FFFF80
07FFFF80
07FFFF80
07FFFF80
FFC00FFC
FFC00FFC
FFC00FFC
FFC00FFC
FFC00FFC
FFC00FFC
FFC00FFC
FFC00FFC
FFC00FFC
FFC00FFC
FFC1FFFC
FFC1FFFC
FFC1FFFC
FFC1FFFC
FFC1FFFC
07FE0FFC
07FE0FFC
07FE0FFC
07FE0FFC
07FE0FFC
ENDCHAR
STARTCHAR 00E3
ENCODING 227
SWIDTH 525 0
DWIDTH 35 0
BBX 30 40 0 0
BITMAP
07FE0F80
07FE0F80
07FE0F80
07FE0F80
07FE0F80
07C1FF80
07C1FF80
07C1FF80
07C1FF80
07C1FF80
00000000
00000000
00000000
00000000
00000000
07FFFF80
07FFFF80
07FFFF80
07FFFF80
07FFFF80
FFC00FFC
FFC00FFC
FFC00FFC
FFC00FFC
FFC00FFC
FFC00FFC
FFC00FFC
FFC00FFC
FFC00FFC
FFC00FFC
FFC1FFFC
FFC1FFFC
FFC1FFFC
FFC1FFFC
FFC1FFFC
07FE0FFC
07FE0FFC
07FE0FFC
07FE0FFC
07FE0FFC
ENDCHAR
STARTCHAR 00E4
ENCODING 228
SWIDTH 525 0
DWIDTH 35 0
BBX 30 40 0 0
BITMAP
FFC00FFC
FFC00FFC
FFC00FFC
FFC00FFC
FFC00FFC
00000000
00000000
00000000
00000000
00000000
00000000
00000000
00000000
00000000
00000000
07FFFF80
07FFFF80
07FFFF80
07FFFF80
07FFFF80
FFC00FFC
FFC00FFC
FFC00FFC
FFC00FFC
FFC00FFC
FFC00FFC
FFC00FFC
FFC00FFC
FFC00FFC
FFC00FFC
FFC1FFFC
FFC1FFFC
FFC1FFFC
FFC1FFFC
FFC1FFFC
07FE0FFC
07FE0FFC
07FE0FFC
07FE0FFC
07FE0FFC
ENDCHAR
STARTCHAR 00E5
ENCODING 229
SWIDTH 525 0
DWIDTH 35 0
BBX 30 45 0 0
BITMAP
07FFFF80
07FFFF80
07FFFF80
07FFFF80
07FFFF80
07C00F80
07C00F80
07C00F80
07C00F80
07C00F80
07FFFF80
07FFFF80
07FFFF80
07FFFF80
07FFFF80
00000000
00000000
00000000
00000000
00000000
07FFFF80
07FFFF80
07FFFF80
07FFFF80
07FFFF80
FFC00FFC
FFC00FFC
FFC00FFC
FFC00FFC
FFC00FFC
FFC00FFC
FFC00FFC
FFC00FFC
FFC00FFC
FFC00FFC
FFC1FFFC
FFC1FFFC
FFC1FFFC
FFC1FFFC
FFC1FFFC
07FE0FFC
07FE0FFC
07FE0FFC
07FE0FFC
07FE0FFC
ENDCHAR
STARTCHAR 00E6
ENCODING 230
SWIDTH 825 0
DWIDTH 55 0
BBX 50 25 0 0
BITMAP
07FFFFFFFFF800
07FFFFFFFFF800
07FFFFFFFFF800
07FFFFFFFFF800
07FFFFFFFFF800
FFC00FFC00FFC0
FFC00FFC00FFC0
FFC00FFC00FFC0
FFC00FFC00FFC0
FFC00FFC00FFC0
FFC00FFC1FFFC0
FFC00FFC1FFFC0
FFC00FFC1FFFC0
FFC00FFC1FFFC0
FFC00FFC1FFFC0
FFC1FFFFE00000
FFC1FFFFE00000
FFC1FFFFE00000
FFC1FFFFE00000
FFC1FFFFE00000
07FE0FFFFF0000
07FE0FFFFF0000
07FE0FFFFF0000
07FE0FFFFF0000
07FE0FFFFF0000
ENDCHAR
STARTCHAR 00E7
ENCODING 231
SWIDTH 525 0
DWIDTH 35 0
BBX 30 35 0 -10
BITMAP
07FFFF80
07FFFF80
07FFFF80
07FFFF80
07FFFF80
FFC00FFC
FFC00FFC
FFC00FFC
FFC00FFC
FFC00FFC
FFC00000
FFC00000
FFC00000
FFC00000
FFC00000
FFC00FFC
FFC00FFC
FFC00FFC
FFC00FFC
FFC00FFC
07FFFF80
07FFFF80
07FFFF80
07FFFF80
07FFFF80
0001F000
0001F000
0001F000
0001F000
0001F000
003FF000
003FF000
003FF000
003FF000
003FF000
ENDCHAR
STARTCHAR 00E8
ENCODING 232
SWIDTH 525 0
DWIDTH 35 0
BBX 30 40 0 0
BITMAP
003E0000
003E0000
003E0000
003E0000
003E0000
0001F000
0001F000
0001F000
0001F000
0001F000
00000000
00000000
00000000
00000000
00000000
07FFFF80
07FFFF80
07FFFF80
07FFFF80
07FFFF80
FFC00FFC
FFC00FFC
FFC00FFC
FFC00FFC
FFC00FFC
FFC1FFFC
FFC1FFFC
FFC1FFFC
FFC1FFFC
FFC1FFFC
FFFE0000
FFFE0000
FFFE0000
FFFE0000
FFFE0000
07FFF000
07FFF000
07FFF000
07FFF000
07FFF000
ENDCHAR
STARTCHAR 00E9
ENCODING 233
SWIDTH 525 0
DWIDTH 35 0
BBX 30 40 0 0
BITMAP
0001F000
0001F000
0001F000
0001F000
0001F000
003E0000
003E0000
003E0000
003E0000
003E0000
00000000
00000000
00000000
00000000
00000000
07FFFF80
07FFFF80
07FFFF80
07FFFF80
07FFFF80
FFC00FFC
FFC00FFC
FFC00FFC
FFC00FFC
FFC00FFC
FFC1FFFC
FFC1FFFC
FFC1FFFC
FFC1FFFC
FFC1FFFC
FFFE0000
FFFE0000
FFFE0000
FFFE0000
FFFE0000
07FFF000
07FFF000
07FFF000
07FFF000
07FFF000
ENDCHAR
STARTCHAR 00EA
ENCODING 234
SWIDTH 525 0
DWIDTH 35 0
BBX 30 40 0 0
BITMAP
003FF000
003FF000
003FF000
003FF000
003FF000
07C00F80
07C00F80
07C00F80
07C00F80
07C00F80
00000000
00000000
00000000
00000000
00000000
07FFFF80
07FFFF80
07FFFF80
07FFFF80
07FFFF80
FFC00FFC
FFC00FFC
FFC00FFC
FFC00FFC
FFC00FFC
FFC1FFFC
FFC1FFFC
FFC1FFFC
FFC1FFFC
FFC1FFFC
FFFE0000
FFFE0000
FFFE0000
FFFE0000
FFFE0000
07FFF000
07FFF000
07FFF000
07FFF000
07FFF000
ENDCHAR
STARTCHAR 00EB
ENCODING 235
SWIDTH 525 0
DWIDTH 35 0
BBX 30 40 0 0
BITMAP
FFC00FFC
FFC00FFC
FFC00FFC
FFC00FFC
FFC00FFC
00000000
00000000
00000000
00000000
00000000
00000000
00000000
00000000
00000000
00000000
07FFFF80
07FFFF80
07FFFF80
07FFFF80
07FFFF80
FFC00FFC
FFC00FFC
FFC00FFC
FFC00FFC
FFC00FFC
FFC1FFFC
FFC1FFFC
FFC1FFFC
FFC1FFFC
FFC1FFFC
FFFE0000
FFFE0000
FFFE0000
FFFE0000
FFFE0000
07FFF000
07FFF000
07FFF000
07FFF000
07FFF000
ENDCHAR
STARTCHAR 00EC
ENCODING 236
SWIDTH 225 0
DWIDTH 15 0
BBX 10 40 0 0
BITMAP
F800
F800
F800
F800
F800
07C0
07C0
07C0
07C0
07C0
0000
0000
0000
0000
0000
FFC0
FFC0
FFC0
FFC0
FFC0
FFC0
FFC0
FFC0
FFC0
FFC0
FFC0
FFC0
FFC0
FFC0
FFC0
FFC0
FFC0
FFC0
FFC0
FFC0
FFC0
FFC0
FFC0
FFC0
FFC0
ENDCHAR
STARTCHAR 00ED
ENCODING 237
SWIDTH 225 0
DWIDTH 15 0
BBX 10 40 0 0
BITMAP
07C0
07C0
07C0
07C0
07C0
F800
F800
F800
F800
F800
0000
0000
0000
0000
0000
FFC0
FFC0
FFC0
FFC0
FFC0
FFC0
FFC0
FFC0
FFC0
FFC0
FFC0
FFC0
FFC0
FFC0
FFC0
FFC0
FFC0
FFC0
FFC0
FFC0
FFC0
FFC0
FFC0
FFC0
FFC0
ENDCHAR
STARTCHAR 00EE
ENCODING 238
SWIDTH 300 0
DWIDTH 20 0
BBX 20 40 0 0
BITMAP
07FE00
07FE00
07FE00
07FE00
07FE00
F801F0
F801F0
F801F0
F801F0
F801F0
000000
000000
000000
000000
000000
07FE00
07FE00
07FE00
07FE00
07FE00
07FE00
07FE00
07FE00
07FE00
07FE00
07FE00
07FE00
07FE00
07FE00
07FE00
07FE00
07FE00
07FE00
07FE00
07FE00
07FE00
07FE00
07FE00
07FE00
07FE00
ENDCHAR
STARTCHAR 00EF
ENCODING 239
SWIDTH 300 0
DWIDTH 20 0
BBX 20 40 0 0
BITMAP
F801F0
F801F0
F801F0
F801F0
F801F0
000000
000000
000000
000000
000000
000000
000000
000000
000000
000000
07FE00
07FE00
07FE00
07FE00
07FE00
07FE00
07FE00
07FE00
07FE00
07FE00
07FE00
07FE00
07FE00
07FE00
07FE00
07FE00
07FE00
07FE00
07FE00
07FE00
07FE00
07FE00
07FE00
07FE00
07FE00
ENDCHAR
STARTCHAR 00F0
ENCODING 240
SWIDTH 525 0
DWIDTH 35 0
BBX 30 40 0 0
BITMAP
003FF07C
003FF07C
003FF07C
003FF07C
003FF07C
0001FF80
0001FF80
0001FF80
0001FF80
0001FF80
003E0FFC
003E0FFC
003E0FFC
003E0FFC
003E0FFC
0001FFFC
0001FFFC
0001FFFC
0001FFFC
0001FFFC
07FE0FFC
07FE0FFC
07FE0FFC
07FE0FFC
07FE0FFC
FFC00FFC
FFC00FFC
FFC00FFC
FFC00FFC
FFC00FFC
FFC00FFC
FFC00FFC
FFC00FFC
FFC00FFC
FFC00FFC
07FFFF80
07FFFF80
07FFFF80
07FFFF80
07FFFF80
ENDCHAR
STARTCHAR 00F1
ENCODING 241
SWIDTH 525 0
DWIDTH 35 0
BBX 30 40 0 0
BITMAP
07FE0F80
07FE0F80
07FE0F80
07FE0F80
07FE0F80
07C1FF80
07C1FF80
07C1FF80
07C1FF80
07C1FF80
00000000
00000000
00000000
00000000
00000000
FFC1FF80
FFC1FF80
FFC1FF80
FFC1FF80
FFC1FF80
FFFE0FFC
FFFE0FFC
FFFE0FFC
FFFE0FFC
FFFE0FFC
FFC00FFC
FFC00FFC
FFC00FFC
FFC00FFC
FFC00FFC
FFC00FFC
FFC00FFC
FFC00FFC
FFC00FFC
FFC00FFC
FFC00FFC
FFC00FFC
FFC00FFC
FFC00FFC
FFC00FFC
ENDCHAR
STARTCHAR 00F2
ENCODING 242
SWIDTH 525 0
DWIDTH 35 0
BBX 30 40 0 0
BITMAP
003E0000
003E0000
003E0000
003E0000
003E0000
0001F000
0001F000
0001F000
0001F000
0001F000
00000000
00000000
00000000
00000000
00000000
07FFFF80
07FFFF80
07FFFF80
07FFFF80
07FFFF80
FFC00FFC
FFC00FFC
FFC00FFC
FFC00FFC
FFC00FFC
FFC00FFC
FFC00FFC
FFC00FFC
FFC00FFC
FFC00FFC
FFC00FFC
FFC00FFC
FFC00FFC
FFC00FFC
FFC00FFC
07FFFF80
07FFFF80
07FFFF80
07FFFF80
07FFFF80
ENDCHAR
STARTCHAR 00F3
ENCODING 243
SWIDTH 525 0
DWIDTH 35 0
BBX 30 40 0 0
BITMAP
0001F000
0001F000
0001F000
0001F000
0001F000
003E0000
003E0000
003E0000
003E0000
003E0000
00000000
00000000
00000000
00000000
00000000
07FFFF80
07FFFF80
07FFFF80
07FFFF80
07FFFF80
FFC00FFC
FFC00FFC
FFC00FFC
FFC00FFC
FFC00FFC
FFC00FFC
FFC00FFC
FFC00FFC
FFC00FFC
FFC00FFC
FFC00FFC
FFC00FFC
FFC00FFC
FFC00FFC
FFC00FFC
07FFFF80
07FFFF80
07FFFF80
07FFFF80
07FFFF80
ENDCHAR
STARTCHAR 00F4
ENCODING 244
SWIDTH 525 0
DWIDTH 35 0
BBX 30 40 0 0
BITMAP
003FF000
003FF000
003FF000
003FF000
003FF000
07C00F80
07C00F80
07C00F80
07C00F80
07C00F80
00000000
00000000
00000000
00000000
00000000
07FFFF80
07FFFF80
07FFFF80
07FFFF80
07FFFF80
FFC00FFC
FFC00FFC
FFC00FFC
FFC00FFC
FFC00FFC
FFC00FFC
FFC00FFC
FFC00FFC
FFC00FFC
FFC00FFC
FFC00FFC
FFC00FFC
FFC00FFC
FFC00FFC
FFC00FFC
07FFFF80
07FFFF80
07FFFF80
07FFFF80
07FFFF80
ENDCHAR
STARTCHAR 00F5
ENCODING 245
SWIDTH 525 0
DWIDTH 35 0
BBX 30 40 0 0
BITMAP
07FE0F80
07FE0F80
07FE0F80
07FE0F80
07FE0F80
07C1FF80
07C1FF80
07C1FF80
07C1FF80
07C1FF80
00000000
00000000
00000000
00000000
00000000
07FFFF80
07FFFF80
07FFFF80
07FFFF80
07FFFF80
FFC00FFC
FFC00FFC
FFC00FFC
FFC00FFC
FFC00FFC
FFC00FFC
FFC00FFC
FFC00FFC
FFC00FFC
FFC00FFC
FFC00FFC
FFC00FFC
FFC00FFC
FFC00FFC
FFC00FFC
07FFFF80
07FFFF80
07FFFF80
07FFFF80
07FFFF80
ENDCHAR
STARTCHAR 00F6
ENCODING 246
SWIDTH 525 0
DWIDTH 35 0
BBX 30 40 0 0
BITMAP
FFC00FFC
FFC00FFC
FFC00FFC
FFC00FFC
FFC00FFC
00000000
00000000
00000000
00000000
00000000
00000000
00000000
00000000
00000000
00000000
07FFFF80
07FFFF80
07FFFF80
07FFFF80
07FFFF80
FFC00FFC
FFC00FFC
FFC00FFC
FFC00FFC
FFC00FFC
FFC00FFC
FFC00FFC
FFC00FFC
FFC00FFC
FFC00FFC
FFC00FFC
FFC00FFC
FFC00FFC
FFC00FFC
FFC00FFC
07FFFF80
07FFFF80
07FFFF80
07FFFF80
07FFFF80
ENDCHAR
STARTCHAR 00F7
ENCODING 247
SWIDTH 450 0
DWIDTH 30 0
BBX 25 25 0 10
BITMAP
003E0000
003E0000
003E0000
003E0000
003E0000
00000000
00000000
00000000
00000000
00000000
FFFFFF80
FFFFFF80
FFFFFF80
FFFFFF80
FFFFFF80
00000000
00000000
00000000
00000000
00000000
003E0000
003E0000
003E0000
003E0000
003E0000
ENDCHAR
STARTCHAR 00F8
ENCODING 248
SWIDTH 525 0
DWIDTH 35 0
BBX 30 45 0 -10
BITMAP
0000007C
0000007C
0000007C
0000007C
0000007C
00000FFC
00000FFC
00000FFC
00000FFC
00000FFC
07FFFFFC
07FFFFFC
07FFFFFC
07FFFFFC
07FFFFFC
FFC00FFC
FFC00FFC
FFC00FFC
FFC00FFC
FFC00FFC
FFFFFFFC
FFFFFFFC
FFFFFFFC
FFFFFFFC
FFFFFFFC
FFC00FFC
FFC00FFC
FFC00FFC
FFC00FFC
FFC00FFC
FFFFFF80
FFFFFF80
FFFFFF80
FFFFFF80
FFFFFF80
FFC00000
FFC00000
FFC00000
FFC00000
FFC00000
F8000000
F8000000
F8000000
F8000000
F8000000
ENDCHAR
STARTCHAR 00F9
ENCODING 249
SWIDTH 525 0
DWIDTH 35 0
BBX 30 40 0 0
BITMAP
003E0000
003E0000
003E0000
003E0000
003E0000
0001F000
0001F000
0001F000
0001F000
0001F000
00000000
00000000
00000000
00000000
00000000
FFC00FFC
FFC00FFC
FFC00FFC
FFC00FFC
FFC00FFC
FFC00FFC
FFC00FFC
FFC00FFC
FFC00FFC
FFC00FFC
FFC00FFC
FFC00FFC
FFC00FFC
FFC00FFC
FFC00FFC
FFC1FFFC
FFC1FFFC
FFC1FFFC
FFC1FFFC
FFC1FFFC
07FE0FFC
07FE0FFC
07FE0FFC
07FE0FFC
07FE0FFC
ENDCHAR
STARTCHAR 00FA
ENCODING 250
SWIDTH 525 0
DWIDTH 35 0
BBX 30 40 0 0
BITMAP
0001F000
0001F000
0001F000
0001F000
0001F000
003E0000
003E0000
003E0000
003E0000
003E0000
00000000
00000000
00000000
00000000
00000000
FFC00FFC
FFC00FFC
FFC00FFC
FFC00FFC
FFC00FFC
FFC00FFC
FFC00FFC
FFC00FFC
FFC00FFC
FFC00FFC
FFC00FFC
FFC00FFC
FFC00FFC
FFC00FFC
FFC00FFC
FFC1FFFC
FFC1FFFC
FFC1FFFC
FFC1FFFC
FFC1FFFC
07FE0FFC
07FE0FFC
07FE0FFC
07FE0FFC
07FE0FFC
ENDCHAR
STARTCHAR 00FB
ENCODING 251
SWIDTH 525 0
DWIDTH 35 0
BBX 30 40 0 0
BITMAP
003FF000
003FF000
003FF000
003FF000
003FF000
07C00F80
07C00F80
07C00F80
07C00F80
07C00F80
00000000
00000000
00000000
00000000
00000000
FFC00FFC
FFC00FFC
FFC00FFC
FFC00FFC
FFC00FFC
FFC00FFC
FFC00FFC
FFC00FFC
FFC00FFC
FFC00FFC
FFC00FFC
FFC00FFC
FFC00FFC
FFC00FFC
FFC00FFC
FFC1FFFC
FFC1FFFC
FFC1FFFC
FFC1FFFC
FFC1FFFC
07FE0FFC
07FE0FFC
07FE0FFC
07FE0FFC
07FE0FFC
ENDCHAR
STARTCHAR 00FC
ENCODING 252
SWIDTH 525 0
DWIDTH 35 0
BBX 30 40 0 0
BITMAP
FFC00FFC
FFC00FFC
FFC00FFC
FFC00FFC
FFC00FFC
00000000
00000000
00000000
00000000
00000000
00000000
00000000
00000000
00000000
00000000
FFC00FFC
FFC00FFC
FFC00FFC
FFC00FFC
FFC00FFC
FFC00FFC
FFC00FFC
FFC00FFC
FFC00FFC
FFC00FFC
FFC00FFC
FFC00FFC
FFC00FFC
FFC00FFC
FFC00FFC
FFC1FFFC
FFC1FFFC
FFC1FFFC
FFC1FFFC
FFC1FFFC
07FE0FFC
07FE0FFC
07FE0FFC
07FE0FFC
07FE0FFC
ENDCHAR
STARTCHAR 00FD
ENCODING 253
SWIDTH 525 0
DWIDTH 35 0
BBX 30 50 0 -10
BITMAP
0001F000
0001F000
0001F000
0001F000
0001F000
003E0000
003E0000
003E0000
003E0000
003E0000
00000000
00000000
00000000
00000000
00000000
FFC00FFC
FFC00FFC
FFC00FFC
FFC00FFC
FFC00FFC
FFC00FFC
FFC00FFC
FFC00FFC
FFC00FFC
FFC00FFC
FFC00FFC
FFC00FFC
FFC00FFC
FFC00FFC
FFC00FFC
FFC1FFFC
FFC1FFFC
FFC1FFFC
FFC1FFFC
FFC1FFFC
07FE0FFC
07FE0FFC
07FE0FFC
07FE0FFC
07FE0FFC
00000FFC
00000FFC
00000FFC
00000FFC
00000FFC
003FFF80
003FFF80
003FFF80
003FFF80
003FFF80
ENDCHAR
STARTCHAR 00FE
ENCODING 254
SWIDTH 525 0
DWIDTH 35 0
BBX 30 50 0 -5
BITMAP
FFC00000
FFC00000
FFC00000
FFC00000
FFC00000
FFC00000
FFC00000
FFC00000
FFC00000
FFC00000
FFC1FF80
FFC1FF80
FFC1FF80
FFC1FF80
FFC1FF80
FFFE0FFC
FFFE0FFC
FFFE0FFC
FFFE0FFC
FFFE0FFC
FFC00FFC
FFC00FFC
FFC00FFC
FFC00FFC
FFC00FFC
FFC00FFC
FFC00FFC
FFC00FFC
FFC00FFC
FFC00FFC
FFFE0FFC
FFFE0FFC
FFFE0FFC
FFFE0FFC
FFFE0FFC
FFC1FF80
FFC1FF80
FFC1FF80
FFC1FF80
FFC1FF80
FFC00000
FFC00000
FFC00000
FFC00000
FFC00000
FFC00000
FFC00000
FFC00000
FFC00000
FFC00000
ENDCHAR
STARTCHAR 00FF
ENCODING 255
SWIDTH 525 0
DWIDTH 35 0
BBX 30 50 0 -10
BITMAP
FFC00FFC
FFC00FFC
FFC00FFC
FFC00FFC
FFC00FFC
00000000
00000000
00000000
00000000
00000000
00000000
00000000
00000000
00000000
00000000
FFC00FFC
FFC00FFC
FFC00FFC
FFC00FFC
FFC00FFC
FFC00FFC
FFC00FFC
FFC00FFC
FFC00FFC
FFC00FFC
FFC00FFC
FFC00FFC
FFC00FFC
FFC00FFC
FFC00FFC
FFC1FFFC
FFC1FFFC
FFC1FFFC
FFC1FFFC
FFC1FFFC
07FE0FFC
07FE0FFC
07FE0FFC
07FE0FFC
07FE0FFC
00000FFC
00000FFC
00000FFC
00000FFC
00000FFC
003FFF80
003FFF80
003FFF80
003FFF80
003FFF80
ENDCHAR
STARTCHAR 0152
ENCODING 338
SWIDTH 825 0
DWIDTH 55 0
BBX 50 40 0 0
BITMAP
07FFFFFFFFF800
07FFFFFFFFF800
07FFFFFFFFF800
07FFFFFFFFF800
07FFFFFFFFF800
FFC00FFC00FFC0
FFC00FFC00FFC0
FFC00FFC00FFC0
FFC00FFC00FFC0
FFC00FFC00FFC0
FFC00FFC000000
FFC00FFC000000
FFC00FFC000000
FFC00FFC000000
FFC00FFC000000
FFC00FFFFF0000
FFC00FFFFF0000
FFC00FFFFF0000
FFC00FFFFF0000
FFC00FFFFF0000
FFC00FFC000000
FFC00FFC000000
FFC00FFC000000
FFC00FFC000000
FFC00FFC000000
FFC00FFC000000
FFC00FFC000000
FFC00FFC000000
FFC00FFC000000
FFC00FFC000000
FFC00FFC00FFC0
FFC00FFC00FFC0
FFC00FFC00FFC0
FFC00FFC00FFC0
FFC00FFC00FFC0
07FFFFFFFFF800
07FFFFFFFFF800
07FFFFFFFFF800
07FFFFFFFFF800
07FFFFFFFFF800
ENDCHAR
STARTCHAR 0153
ENCODING 339
SWIDTH 825 0
DWIDTH 55 0
BBX 50 25 0 0
BITMAP
07FFFFFFFFF800
07FFFFFFFFF800
07FFFFFFFFF800
07FFFFFFFFF800
07FFFFFFFFF800
FFC00FFC00FFC0
FFC00FFC00FFC0
FFC00FFC00FFC0
FFC00FFC00FFC0
FFC00FFC00FFC0
FFC00FFC1FFFC0
FFC00FFC1FFFC0
FFC00FFC1FFFC0
FFC00FFC1FFFC0
FFC00FFC1FFFC0
FFC00FFFE00000
FFC00FFFE00000
FFC00FFFE00000
FFC00FFFE00000
FFC00FFFE00000
07FFFFFFFF0000
07FFFFFFFF0000
07FFFFFFFF0000
07FFFFFFFF0000
07FFFFFFFF0000
ENDCHAR
STARTCHAR 0160
ENCODING 352
SWIDTH 525 0
DWIDTH 35 0
BBX 30 50 0 0
BITMAP
07C00F80
07C00F80
07C00F80
07C00F80
07C00F80
003FF000
003FF000
003FF000
003FF000
003FF000
07FFFF80
07FFFF80
07FFFF80
07FFFF80
07FFFF80
FFC00FFC
FFC00FFC
FFC00FFC
FFC00FFC
FFC00FFC
FFC00000
FFC00000
FFC00000
FFC00000
FFC00000
FFC1FF80
FFC1FF80
FFC1FF80
FFC1FF80
FFC1FF80
07FE0FFC
07FE0FFC
07FE0FFC
07FE0FFC
07FE0FFC
00000FFC
00000FFC
00000FFC
00000FFC
00000FFC
FFC00FFC
FFC00FFC
FFC00FFC
FFC00FFC
FFC00FFC
07FFFF80
07FFFF80
07FFFF80
07FFFF80
07FFFF80
ENDCHAR
STARTCHAR 0161
ENCODING 353
SWIDTH 525 0
DWIDTH 35 0
BBX 30 40 0 0
BITMAP
07C00F80
07C00F80
07C00F80
07C00F80
07C00F80
003FF000
003FF000
003FF000
003FF000
003FF000
00000000
00000000
00000000
00000000
00000000
07FFFFFC
07FFFFFC
07FFFFFC
07FFFFFC
07FFFFFC
FFC00000
FFC00000
FFC00000
FFC00000
FFC00000
FFFFFFFC
FFFFFFFC
FFFFFFFC
FFFFFFFC
FFFFFFFC
00000FFC
00000FFC
00000FFC
00000FFC
00000FFC
FFFFFF80
FFFFFF80
FFFFFF80
FFFFFF80
FFFFFF80
ENDCHAR
STARTCHAR 0178
ENCODING 376
SWIDTH 525 0
DWIDTH 35 0
BBX 30 50 0 0
BITMAP
FFC00FFC
FFC00FFC
FFC00FFC
FFC00FFC
FFC00FFC
00000000
00000000
00000000
00000000
00000000
FFC00FFC
FFC00FFC
FFC00FFC
FFC00FFC
FFC00FFC
FFC00FFC
FFC00FFC
FFC00FFC
FFC00FFC
FFC00FFC
FFC00FFC
FFC00FFC
FFC00FFC
FFC00FFC
FFC00FFC
FFC1FFFC
FFC1FFFC
FFC1FFFC
FFC1FFFC
FFC1FFFC
07FE0FFC
07FE0FFC
07FE0FFC
07FE0FFC
07FE0FFC
00000FFC
00000FFC
00000FFC
00000FFC
00000FFC
00000FFC
00000FFC
00000FFC
00000FFC
00000FFC
003FFF80
003FFF80
003FFF80
003FFF80
003FFF80
ENDCHAR
STARTCHAR 0192
ENCODING 402
SWIDTH 600 0
DWIDTH 40 0
BBX 35 40 0 0
BITMAP
003FFFFC00
003FFFFC00
003FFFFC00
003FFFFC00
003FFFFC00
07FE007FE0
07FE007FE0
07FE007FE0
07FE007FE0
07FE007FE0
07FE000000
07FE000000
07FE000000
07FE000000
07FE000000
FFFFF00000
FFFFF00000
FFFFF00000
FFFFF00000
FFFFF00000
07FE000000
07FE000000
07FE000000
07FE000000
07FE000000
07FE000000
07FE000000
07FE000000
07FE000000
07FE000000
07FE000000
07FE000000
07FE000000
07FE000000
07FE000000
FFC0000000
FFC0000000
FFC0000000
FFC0000000
FFC0000000
ENDCHAR
STARTCHAR 02C6
ENCODING 710
SWIDTH 375 0
DWIDTH 25 0
BBX 20 10 0 40
BITMAP
07FE00
07FE00
07FE00
07FE00
07FE00
F801F0
F801F0
F801F0
F801F0
F801F0
ENDCHAR
STARTCHAR 02DC
ENCODING 732
SWIDTH 375 0
DWIDTH 25 0
BBX 20 10 0 40
BITMAP
FFC1F0
FFC1F0
FFC1F0
FFC1F0
FFC1F0
F83FF0
F83FF0
F83FF0
F83FF0
F83FF0
ENDCHAR
STARTCHAR 2013
ENCODING 8211
SWIDTH 375 0
DWIDTH 25 0
BBX 20 5 0 20
BITMAP
FFFFF0
FFFFF0
FFFFF0
FFFFF0
FFFFF0
ENDCHAR
STARTCHAR 2014
ENCODING 8212
SWIDTH 525 0
DWIDTH 35 0
BBX 30 5 0 20
BITMAP
FFFFFFFC
FFFFFFFC
FFFFFFFC
FFFFFFFC
FFFFFFFC
ENDCHAR
STARTCHAR 2018
ENCODING 8216
SWIDTH 225 0
DWIDTH 15 0
BBX 10 15 0 30
BITMAP
F800
F800
F800
F800
F800
FFC0
FFC0
FFC0
FFC0
FFC0
FFC0
FFC0
FFC0
FFC0
FFC0
ENDCHAR
STARTCHAR 2019
ENCODING 8217
SWIDTH 225 0
DWIDTH 15 0
BBX 10 15 0 25
BITMAP
FFC0
FFC0
FFC0
FFC0
FFC0
FFC0
FFC0
FFC0
FFC0
FFC0
07C0
07C0
07C0
07C0
07C0
ENDCHAR
STARTCHAR 201A
ENCODING 8218
SWIDTH 225 0
DWIDTH 15 0
BBX 10 15 0 -10
BITMAP
FFC0
FFC0
FFC0
FFC0
FFC0
FFC0
FFC0
FFC0
FFC0
FFC0
07C0
07C0
07C0
07C0
07C0
ENDCHAR
STARTCHAR 201C
ENCODING 8220
SWIDTH 450 0
DWIDTH 30 0
BBX 25 15 0 30
BITMAP
F801F000
F801F000
F801F000
F801F000
F801F000
FFC1FF80
FFC1FF80
FFC1FF80
FFC1FF80
FFC1FF80
FFC1FF80
FFC1FF80
FFC1FF80
FFC1FF80
FFC1FF80
ENDCHAR
STARTCHAR 201D
ENCODING 8221
SWIDTH 450 0
DWIDTH 30 0
BBX 25 15 0 25
BITMAP
FFC1FF80
FFC1FF80
FFC1FF80
FFC1FF80
FFC1FF80
FFC1FF80
FFC1FF80
FFC1FF80
FFC1FF80
FFC1FF80
07C00F80
07C00F80
07C00F80
07C00F80
07C00F80
ENDCHAR
STARTCHAR 201E
ENCODING 8222
SWIDTH 450 0
DWIDTH 30 0
BBX 25 15 0 -10
BITMAP
FFC1FF80
FFC1FF80
FFC1FF80
FFC1FF80
FFC1FF80
FFC1FF80
FFC1FF80
FFC1FF80
FFC1FF80
FFC1FF80
07C00F80
07C00F80
07C00F80
07C00F80
07C00F80
ENDCHAR
STARTCHAR 2020
ENCODING 8224
SWIDTH 525 0
DWIDTH 35 0
BBX 30 40 0 0
BITMAP
003FF000
003FF000
003FF000
003FF000
003FF000
003FF000
003FF000
003FF000
003FF000
003FF000
FFFFFFFC
FFFFFFFC
FFFFFFFC
FFFFFFFC
FFFFFFFC
003FF000
003FF000
003FF000
003FF000
003FF000
003FF000
003FF000
003FF000
003FF000
003FF000
003FF000
003FF000
003FF000
003FF000
003FF000
003FF000
003FF000
003FF000
003FF000
003FF000
003FF000
003FF000
003FF000
003FF000
003FF000
ENDCHAR
STARTCHAR 2021
ENCODING 8225
SWIDTH 525 0
DWIDTH 35 0
BBX 30 40 0 0
BITMAP
003FF000
003FF000
003FF000
003FF000
003FF000
003FF000
003FF000
003FF000
003FF000
003FF000
FFFFFFFC
FFFFFFFC
FFFFFFFC
FFFFFFFC
FFFFFFFC
003FF000
003FF000
003FF000
003FF000
003FF000
003FF000
003FF000
003FF000
003FF000
003FF000
FFFFFFFC
FFFFFFFC
FFFFFFFC
FFFFFFFC
FFFFFFFC
003FF000
003FF000
003FF000
003FF000
003FF000
003FF000
003FF000
003FF000
003FF000
003FF000
ENDCHAR
STARTCHAR 2022
ENCODING 8226
SWIDTH 450 0
DWIDTH 30 0
BBX 25 25 0 10
BITMAP
003E0000
003E0000
003E0000
003E0000
003E0000
07FFF000
07FFF000
07FFF000
07FFF000
07FFF000
FFFFFF80
FFFFFF80
FFFFFF80
FFFFFF80
FFFFFF80
07FFF000
07FFF000
07FFF000
07FFF000
07FFF000
003E0000
003E0000
003E0000
003E0000
003E0000
ENDCHAR
STARTCHAR 2026
ENCODING 8230
SWIDTH 675 0
DWIDTH 45 0
BBX 40 5 0 0
BITMAP
FFC1FF83FF
FFC1FF83FF
FFC1FF83FF
FFC1FF83FF
FFC1FF83FF
ENDCHAR
STARTCHAR 2030
ENCODING 8240
SWIDTH 825 0
DWIDTH 55 0
BBX 50 40 0 0
BITMAP
FFFE007FE00000
FFFE007FE00000
FFFE007FE00000
FFFE007FE00000
FFFE007FE00000
F83E0FFC000000
F83E0FFC000000
F83E0FFC000000
F83E0FFC000000
F83E0FFC000000
FFFE0FFC000000
FFFE0FFC000000
FFFE0FFC000000
FFFE0FFC000000
FFFE0FFC000000
0001FF80000000
0001FF80000000
0001FF80000000
0001FF80000000
0001FF80000000
0001FF80000000
0001FF80000000
0001FF80000000
0001FF80000000
0001FF80000000
003FF07FFFFFC0
003FF07FFFFFC0
003FF07FFFFFC0
003FF07FFFFFC0
003FF07FFFFFC0
003FF07C1F07C0
003FF07C1F07C0
003FF07C1F07C0
003FF07C1F07C0
003FF07C1F07C0
07FE007FFFFFC0
07FE007FFFFFC0
07FE007FFFFFC0
07FE007FFFFFC0
07FE007FFFFFC0
ENDCHAR
STARTCHAR 2039
ENCODING 8249
SWIDTH 300 0
DWIDTH 20 0
BBX 15 15 0 15
BITMAP
07FE
07FE
07FE
07FE
07FE
FFC0
FFC0
FFC0
FFC0
FFC0
07FE
07FE
07FE
07FE
07FE
ENDCHAR
STARTCHAR 203A
ENCODING 8250
SWIDTH 300 0
DWIDTH 20 0
BBX 15 15 0 15
BITMAP
FFC0
FFC0
FFC0
FFC0
FFC0
07FE
07FE
07FE
07FE
07FE
FFC0
FFC0
FFC0
FFC0
FFC0
ENDCHAR
STARTCHAR 2122
ENCODING 8482
SWIDTH 450 0
DWIDTH 30 0
BBX 25 40 0 0
BITMAP
FFFFFF80
FFFFFF80
FFFFFF80
FFFFFF80
FFFFFF80
003E0000
003E0000
003E0000
003E0000
003E0000
003E0000
003E0000
003E0000
003E0000
003E0000
003E0000
003E0000
003E0000
003E0000
003E0000
F8000F80
F8000F80
F8000F80
F8000F80
F8000F80
FFC1FF80
FFC1FF80
FFC1FF80
FFC1FF80
FFC1FF80
F83E0F80
F83E0F80
F83E0F80
F83E0F80
F83E0F80
F8000F80
F8000F80
F8000F80
F8000F80
F8000F80
ENDCHAR
STARTCHAR 2219
ENCODING 8729
SWIDTH 300 0
DWIDTH 20 0
BBX 15 15 0 15
BITMAP
FFFE
FFFE
FFFE
FFFE
FFFE
FFFE
FFFE
FFFE
FFFE
FFFE
FFFE
FFFE
FFFE
FFFE
FFFE
ENDCHAR
STARTCHAR E000
ENCODING 57344
SWIDTH 0 0
DWIDTH 0 0
BBX 0 0 0 0
BITMAP
ENDCHAR
STARTCHAR E001
ENCODING 57345
SWIDTH 495 0
DWIDTH 33 0
BBX 0 0 0 0
BITMAP
ENDCHAR
ENDFONT
